<svg width="36" height="24" viewBox="0 0 36 24" fill="none" xmlns="http://www.w3.org/2000/svg">
<g clip-path="url(#clip0_48_436)">
<path d="M0 3C0 1.34315 1.34315 0 3 0H33C34.6569 0 36 1.34315 36 3V21C36 22.6569 34.6569 24 33 24H3C1.34315 24 0 22.6569 0 21V3Z" fill="#CCE4FF"/>
<path d="M32.8987 9.24199H31.3487L30.4516 13.0267L30.3258 13.5462C30.2392 13.5699 30.1526 13.5933 30.066 13.6091C29.9087 13.6407 29.7434 13.6565 29.5705 13.6565C29.3737 13.6565 29.2166 13.6249 29.0984 13.5696C28.9881 13.5146 28.9016 13.4359 28.8545 13.3257C28.8071 13.2236 28.7913 13.0975 28.7992 12.9559C28.8071 12.8144 28.8387 12.657 28.8781 12.4996L29.35 10.5325L29.6568 9.22646H28.0752L27.3595 12.2478C27.2771 12.5886 27.227 12.9363 27.2097 13.2865C27.1939 13.6167 27.2492 13.9001 27.3595 14.1599C27.4695 14.4117 27.6663 14.6083 27.9337 14.7578C28.2013 14.9073 28.5868 14.978 29.0747 14.978C29.4131 14.978 29.7121 14.9465 29.9639 14.8915C29.9718 14.8915 29.9876 14.8836 29.9955 14.8836C29.9245 15.1983 29.7829 15.4501 29.5626 15.6467C29.3345 15.8436 29.0039 15.9459 28.5631 15.9459C28.3745 15.9459 28.2013 15.938 28.0439 15.9144L27.7368 17.1973C27.9413 17.2209 28.1697 17.2367 28.4213 17.2367C28.8934 17.2367 29.3026 17.1815 29.6566 17.0791C30.0108 16.9691 30.3097 16.8117 30.5695 16.5915C30.821 16.3709 31.0337 16.0957 31.2066 15.773C31.3797 15.4428 31.5134 15.057 31.6158 14.6007L32.6858 10.0999L32.8984 9.24225L32.8987 9.24199ZM26.4074 12.4762C26.3121 12.8646 26.2827 13.2662 26.3205 13.6644C26.36 14.0657 26.5174 14.6715 26.6671 14.9783H25.1721C24.991 14.6715 24.9989 14.522 24.9597 14.4275C24.7632 14.5869 24.5461 14.7192 24.3145 14.8209C24.0784 14.9236 23.8187 14.9783 23.5197 14.9783C23.1734 14.9783 22.8745 14.9154 22.6305 14.7975C22.3932 14.6846 22.1857 14.5174 22.0247 14.3096C21.8674 14.1049 21.7574 13.8688 21.6863 13.5936C21.6152 13.318 21.5839 13.027 21.5839 12.7123C21.5839 12.2323 21.6708 11.7838 21.836 11.3591C22.0089 10.9341 22.245 10.5644 22.5439 10.2496C22.8431 9.93488 23.575 9.23462 24.7708 9.23462H27.1708L26.4074 12.4762ZM25.3137 10.5486C24.59 10.5486 24.4558 10.5486 24.1571 10.698C23.9447 10.808 23.7716 10.9733 23.6221 11.1623C23.4647 11.3605 23.3423 11.584 23.26 11.8233C23.1724 12.0737 23.1272 12.337 23.1263 12.6023C23.1263 12.9325 23.1816 13.2001 23.2916 13.397C23.4016 13.5936 23.6063 13.6878 23.9052 13.6878C24.0626 13.6878 24.2121 13.6565 24.3381 13.5936C24.4639 13.5304 24.6055 13.4283 24.7471 13.2788C24.7629 13.1057 24.7866 12.9246 24.8181 12.7359C24.8495 12.547 24.8889 12.3662 24.9202 12.2088L25.3137 10.5483V10.5486ZM21.1592 11.5157C21.1592 12.0273 21.0724 12.4915 20.9074 12.9162C20.7506 13.3246 20.5124 13.6968 20.2071 14.0101C19.9079 14.317 19.5539 14.553 19.1368 14.7259C18.72 14.8991 18.2716 14.9857 17.7837 14.9857C17.5476 14.9857 17.3116 14.962 17.0676 14.9225L16.5955 16.8191H15.0455L16.8468 9.24988H18.9163C19.31 9.24988 19.6479 9.31304 19.9234 9.43067C20.1898 9.54002 20.4288 9.70658 20.6237 9.91857C20.8047 10.1233 20.9384 10.3673 21.025 10.6425C21.1197 10.9101 21.1589 11.2012 21.1589 11.5162L21.1592 11.5157ZM17.3587 13.6638C17.4766 13.6954 17.6263 13.7033 17.7995 13.7033C18.0747 13.7033 18.3187 13.6559 18.5468 13.5533C18.766 13.4538 18.9616 13.3092 19.121 13.1288C19.2787 12.9478 19.3966 12.7275 19.491 12.4757C19.5818 12.2043 19.627 11.9197 19.6247 11.6336C19.6247 11.3346 19.5616 11.0751 19.4281 10.8704C19.2942 10.658 19.0663 10.5478 18.7358 10.5478H18.1218L17.3587 13.6636V13.6638ZM14.1013 13.6638C13.9045 13.6638 13.7474 13.6323 13.6292 13.5773C13.5187 13.522 13.4324 13.4436 13.3852 13.3333C13.3379 13.2309 13.3221 13.1051 13.33 12.9636C13.3379 12.8217 13.3695 12.6644 13.4089 12.507L13.8808 10.5401H15.6434L15.9658 9.2341H14.1952L14.6045 7.58173L12.9518 7.8412L11.9055 12.2633C11.8233 12.6041 11.7732 12.9518 11.756 13.302C11.7402 13.6325 11.7955 13.9159 11.9055 14.1754C12.0155 14.4273 12.2124 14.6238 12.48 14.7733C12.7474 14.9228 13.1329 14.9936 13.6208 14.9936C13.9592 14.9936 14.2581 14.962 14.51 14.907C14.5337 14.8991 14.5729 14.8912 14.5963 14.8833L14.9192 13.538C14.8087 13.5775 14.6987 13.6012 14.5963 13.6165C14.4392 13.648 14.2739 13.6638 14.101 13.6638H14.1013ZM10.1592 9.24199L8.78998 14.9859H10.34L11.7016 9.24199H10.1595H10.1592ZM11.8666 8.5812L12.1026 7.58173H10.5526L10.3166 8.5812H11.8666ZM6.72893 9.24962C7.05919 9.24962 7.35051 9.31278 7.59419 9.43067C7.82989 9.54282 8.0371 9.70693 8.20025 9.91067C8.3613 10.1227 8.48134 10.363 8.55419 10.6191C8.63288 10.8865 8.67209 11.1775 8.67209 11.4923C8.67209 11.9723 8.58577 12.4209 8.40472 12.8536C8.22367 13.2786 7.98762 13.6562 7.68104 13.9707C7.37148 14.2886 7.00248 14.5426 6.59498 14.7183C6.17788 14.8994 5.72946 14.9936 5.24156 14.9936C5.17867 14.9936 5.06867 14.9936 4.9113 14.9857C4.75393 14.9857 4.57288 14.9699 4.3763 14.9386C4.16201 14.9065 3.94933 14.8646 3.73893 14.8128C3.51905 14.7593 3.30541 14.6829 3.10156 14.5846L4.90314 7.01515L6.5163 6.76331L5.87867 9.44646C6.02025 9.38331 6.1463 9.3362 6.28788 9.30488C6.42156 9.26541 6.57104 9.24962 6.72867 9.24962H6.72893ZM5.37525 13.7036C5.61919 13.7036 5.84735 13.6483 6.05972 13.5228C6.27502 13.4034 6.46483 13.2431 6.6184 13.0507C6.7779 12.8497 6.90285 12.6237 6.98814 12.3817C7.07574 12.1313 7.12092 11.8681 7.12183 11.6028C7.12183 11.2723 7.06683 11.0128 6.95656 10.8238C6.84656 10.6349 6.6184 10.5486 6.31946 10.5486C6.22472 10.5486 6.12262 10.5565 5.96525 10.5959C5.80788 10.627 5.67419 10.7059 5.54814 10.8159L4.87156 13.672C5.07604 13.7036 5.13919 13.7112 5.19419 13.7112C5.23367 13.7033 5.29656 13.7033 5.37525 13.7033V13.7036Z" fill="#002855"/>
</g>
<defs>
<clipPath id="clip0_48_436">
<rect width="36" height="24" fill="white"/>
</clipPath>
</defs>
</svg>
