<svg width="36" height="25" viewBox="0 0 36 25" fill="none" xmlns="http://www.w3.org/2000/svg">
<g clip-path="url(#clip0_48_426)">
<path d="M0 3.38464C0 1.72779 1.34315 0.384644 3 0.384644H33C34.6569 0.384644 36 1.72779 36 3.38464V21.3846C36 23.0415 34.6569 24.3846 33 24.3846H3C1.34315 24.3846 0 23.0415 0 21.3846V3.38464Z" fill="#E7E4E5"/>
<path d="M7.46826 9.31912C7.78871 9.21073 8.13273 9.15418 8.49088 9.15418C10.0554 9.15418 11.3608 10.2663 11.6577 11.7414L13.8726 11.289C13.3637 8.78189 11.1488 6.89215 8.49088 6.89215C7.88296 6.89215 7.29861 6.99111 6.75195 7.1749L7.46826 9.31912Z" fill="#FFF100"/>
<path d="M4.85301 16.5011L6.35161 14.8046C5.68242 14.2108 5.263 13.3484 5.263 12.3823C5.263 11.4209 5.68242 10.5538 6.35161 9.96476L4.85301 8.27295C3.71729 9.28144 3.00098 10.747 3.00098 12.387C3.00098 14.0223 3.71729 15.4925 4.85301 16.5011Z" fill="#00A3DF"/>
<path d="M11.6585 13.0327C11.3569 14.5077 10.0563 15.6151 8.49169 15.6151C8.13353 15.6151 7.78952 15.5586 7.46435 15.4502L6.74805 17.5944C7.2947 17.7782 7.88377 17.8772 8.49169 17.8772C11.1496 17.8772 13.3645 15.9921 13.8734 13.4851L11.6585 13.0327Z" fill="#EE4023"/>
<path d="M21.2532 14.5501C20.8857 14.9083 20.3909 15.125 19.8442 15.1156C19.4671 15.1108 19.1185 14.9977 18.8262 14.8092L18.0911 15.978C18.5953 16.2937 19.1843 16.4822 19.8253 16.4916C20.7537 16.5058 21.6019 16.1382 22.2193 15.5397L21.2532 14.5501ZM19.9243 9.78565C18.0769 9.75738 16.5501 11.2371 16.5218 13.0844C16.5124 13.7772 16.7103 14.4275 17.0637 14.9648L23.1335 12.3681C22.7943 10.912 21.4936 9.81393 19.9244 9.78565H19.9243ZM17.9121 13.3483C17.9026 13.2729 17.8979 13.1928 17.8979 13.1127C17.9168 12.0241 18.8122 11.1522 19.9007 11.1711C20.4945 11.1805 21.0223 11.4491 21.3757 11.8733L17.9121 13.3483ZM25.0421 8.27759V14.7479L26.1638 15.2145L25.6312 16.4916L24.519 16.0297C24.2693 15.9214 24.0996 15.7564 23.9724 15.5679C23.8499 15.3794 23.7556 15.1155 23.7556 14.7668V8.27759H25.0421ZM29.0903 11.2701C29.2882 11.2041 29.4955 11.1711 29.7171 11.1711C30.6737 11.1711 31.4654 11.8497 31.6492 12.7498L33.0017 12.4718C32.6906 10.9402 31.3382 9.79032 29.7171 9.79032C29.3448 9.79032 28.9866 9.85158 28.6568 9.95997L29.0903 11.2701ZM27.4927 15.648L28.4069 14.616C27.9969 14.2531 27.7424 13.7253 27.7424 13.1362C27.7424 12.5472 28.0016 12.0194 28.4069 11.6612L27.4927 10.6292C26.8 11.2418 26.3616 12.1419 26.3616 13.1409C26.3616 14.14 26.8 15.0354 27.4927 15.648ZM31.6492 13.5368C31.4654 14.4369 30.669 15.1155 29.7171 15.1155C29.5003 15.1155 29.2882 15.0778 29.0903 15.0118L28.652 16.3219C28.9866 16.435 29.3447 16.4963 29.7171 16.4963C31.3382 16.4963 32.6907 15.3464 33.0017 13.8148L31.6492 13.5368Z" fill="#231F20"/>
</g>
<defs>
<clipPath id="clip0_48_426">
<rect width="36" height="24" fill="white" transform="translate(0 0.384644)"/>
</clipPath>
</defs>
</svg>
