<svg width="198" height="119" viewBox="0 0 198 119" fill="none" xmlns="http://www.w3.org/2000/svg">
<path d="M103.46 89.5C106.599 89.5428 109.184 90.1984 111.475 91.8566C112.015 92.2486 112.217 92.5788 111.814 93.206C111.368 93.8997 111.048 94.6718 110.622 95.3797C110.004 96.406 109.286 96.6198 108.229 96.0734C107.004 95.4368 105.796 94.7906 104.4 94.5768C103.42 94.4271 102.491 94.6124 101.628 94.9973C99.8917 95.7741 99.6809 98.1711 101.237 99.2687C102.616 100.24 104.268 100.566 105.827 101.107C107.729 101.768 109.677 102.402 110.982 104.058C114.117 108.032 112.527 114.442 107.862 116.803C103.467 119.027 97.378 117.863 93.6299 114.839C93.1655 114.463 93.1299 114.119 93.4664 113.634C93.9165 112.988 94.3075 112.299 94.7292 111.632C95.4305 110.529 96.4019 110.277 97.5651 110.907C98.4299 111.375 99.2591 111.914 100.152 112.313C101.527 112.926 102.969 113.031 104.431 112.603C105.604 112.261 106.322 111.534 106.452 110.27C106.606 108.759 106.206 107.926 104.945 107.229C103.339 106.343 101.524 106.056 99.8207 105.45C97.596 104.659 95.6958 103.531 94.7387 101.205C92.6514 96.1328 96.0038 90.3576 101.46 89.6829C102.242 89.5855 103.031 89.538 103.46 89.5Z" fill="#FDFDFD"/>
<path d="M0.0215782 103.731C0.0215782 99.4568 0.0476406 95.1854 0.000255927 90.9116C-0.00922101 89.9803 0.241918 89.7095 1.18487 89.719C6.39482 89.7665 11.6048 89.7665 16.8123 89.7285C17.6866 89.7214 18.023 89.9376 17.9472 90.8474C17.8714 91.7502 17.8453 92.6767 17.9591 93.5723C18.0941 94.6461 17.6392 94.8076 16.7057 94.791C13.7466 94.7387 10.785 94.8124 7.82584 94.7482C6.82839 94.7269 6.4043 94.9264 6.47774 96.0359C6.57962 97.5729 6.54882 99.1218 6.48485 100.664C6.44694 101.566 6.66728 101.913 7.65051 101.882C10.0553 101.806 12.4648 101.889 14.8719 101.837C15.7178 101.818 16.1039 102.003 16.0234 102.94C15.9405 103.921 15.9523 104.918 16.0115 105.904C16.0566 106.643 15.8031 106.847 15.0804 106.836C12.5548 106.795 10.0292 106.845 7.50362 106.802C6.72888 106.788 6.48011 107.021 6.49196 107.807C6.53224 110.734 6.48011 113.663 6.52276 116.59C6.53461 117.421 6.39245 117.804 5.44002 117.747C3.98531 117.659 2.51875 117.683 1.06167 117.747C0.22059 117.783 0.00261996 117.493 0.00972766 116.671C0.042897 112.357 0.0215782 108.042 0.0215782 103.731Z" fill="#FDFDFD"/>
<path d="M35.7944 97.8176C37.4884 97.8176 39.064 97.8033 40.6372 97.8223C41.528 97.8342 42.0895 98.2856 42.3525 99.1646C43.5181 103.051 44.8591 106.885 45.8613 110.822C45.9182 111.048 46.0295 111.257 46.129 111.508C47.3445 107.715 48.5599 103.966 49.7469 100.21C50.4742 97.9102 50.5785 97.8128 52.9548 97.8152C53.7817 97.8152 54.6156 97.8627 55.4378 97.7986C56.3618 97.7273 56.3902 98.0338 56.0846 98.8011C54.6298 102.464 53.2296 106.151 51.8034 109.827C50.8912 112.178 49.9246 114.511 49.0811 116.889C48.8229 117.614 48.4556 117.761 47.7946 117.74C46.6526 117.704 45.5059 117.697 44.364 117.74C43.6887 117.764 43.3191 117.574 43.0561 116.885C40.7106 110.732 38.3224 104.593 35.9484 98.4495C35.8987 98.307 35.8774 98.1526 35.7944 97.8176Z" fill="#FDFDFD"/>
<path d="M186.753 107.764C186.753 106.144 186.727 104.521 186.765 102.901C186.781 102.231 186.668 101.913 185.881 101.908C184.168 101.896 183.313 100.414 183.948 98.7344C184.118 98.283 184.497 98.2996 184.824 98.2996C186.663 98.2996 187.594 97.3802 187.686 95.5581C187.691 95.4417 187.724 95.3229 187.75 95.2089C188.504 91.9281 188.504 91.9447 191.868 92.0778C192.472 92.1015 192.7 92.2512 192.681 92.8855C192.638 94.2681 192.693 95.6531 192.655 97.0381C192.638 97.6582 192.849 97.8767 193.467 97.8577C194.571 97.8197 195.678 97.8696 196.78 97.834C197.374 97.815 197.587 97.9836 197.618 98.6227C197.772 101.937 197.794 101.937 194.538 101.934C194.301 101.934 194.062 101.953 193.827 101.93C192.927 101.837 192.622 102.189 192.645 103.129C192.712 105.897 192.659 108.665 192.674 111.432C192.683 113.147 193.328 113.611 194.948 113.102C195.377 112.967 195.839 112.836 196.14 113.259C196.758 114.124 197.322 115.029 197.905 115.917C198.182 116.34 197.789 116.516 197.554 116.644C194.929 118.079 192.174 118.557 189.404 117.229C187.573 116.352 186.852 114.599 186.779 112.627C186.72 111.007 186.767 109.384 186.767 107.764C186.762 107.764 186.758 107.764 186.753 107.764Z" fill="#FDFDFD"/>
<path d="M171.948 107.512C171.952 108.608 172.019 109.503 172.244 110.396C173.18 114.091 176.828 114.212 178.849 112.703C180.33 111.599 182.578 112.551 182.962 114.418C183.069 114.936 182.645 115.115 182.375 115.35C179.148 118.132 175.409 118.704 171.545 117.267C167.842 115.891 166.231 112.729 165.901 108.94C165.615 105.638 166.276 102.566 168.723 100.108C172.045 96.7697 179.001 96.6557 182.405 99.8652C182.858 100.29 183.021 100.644 182.514 101.127C182.318 101.314 182.178 101.564 182.012 101.785C180.733 103.495 180.498 103.55 178.629 102.564C175.333 100.827 172.367 102.438 172.019 106.158C171.971 106.669 171.964 107.185 171.948 107.512Z" fill="#FDFDFD"/>
<path d="M142.24 103.509C142.24 107.897 142.221 112.285 142.256 116.673C142.263 117.492 142.043 117.785 141.202 117.744C139.863 117.68 138.52 117.702 137.181 117.737C136.546 117.754 136.272 117.597 136.274 116.889C136.293 107.876 136.291 98.8626 136.276 89.8518C136.276 89.2412 136.463 89.0084 137.087 89.0203C138.465 89.0512 139.849 89.0749 141.226 89.0037C142.105 88.9585 142.263 89.3315 142.256 90.1083C142.225 94.5769 142.24 99.0432 142.24 103.509Z" fill="#FDFDFD"/>
<path d="M85.4869 100.63C86.1242 99.9151 86.617 99.2998 87.1738 98.7486C87.8608 98.0692 88.6782 97.6202 89.6709 97.5275C92.2558 97.2876 92.7201 97.7437 92.3055 100.269C92.161 101.155 92.5235 102.267 91.8412 102.885C91.147 103.514 90.0926 102.975 89.1971 103.006C87.3206 103.07 85.8825 104.493 85.873 106.42C85.8541 109.822 85.8328 113.223 85.8801 116.625C85.892 117.528 85.6124 117.789 84.7382 117.744C83.3996 117.675 82.0562 117.702 80.7152 117.737C80.0992 117.754 79.8907 117.538 79.8931 116.922C79.9097 110.791 79.9097 104.659 79.8955 98.5301C79.8931 97.9623 80.0897 97.7675 80.6512 97.796C81.4781 97.8388 82.3097 97.8554 83.1366 97.8031C84.3709 97.7271 85.1054 98.1737 85.1954 99.4875C85.2191 99.8296 85.3637 100.16 85.4869 100.63Z" fill="#FDFDFD"/>
<path d="M66.5352 97.5562C60.4913 97.6061 56.6579 101.697 56.71 108.038C56.7598 113.996 60.8775 118.008 66.8835 117.949C73.0506 117.889 76.967 113.882 76.9125 107.684C76.858 101.319 72.9511 97.5039 66.5352 97.5562ZM70.307 111.204C69.6697 113.076 68.4045 113.692 66.1727 113.497C64.628 113.361 63.4434 112.233 63.0975 110.537C62.9079 109.608 62.7752 108.67 62.8202 108.03C62.8463 106.486 62.9198 105.268 63.3912 104.111C63.9788 102.669 65.0497 102.02 66.8361 101.975C68.4116 101.935 69.6247 102.505 70.2075 104.02C71.115 106.391 71.1173 108.826 70.307 111.204Z" fill="#FDFDFD"/>
<path d="M152.069 108.774C153.806 108.814 155.543 108.786 157.279 108.786C157.279 108.783 157.279 108.783 157.279 108.781C158.819 108.781 160.357 108.783 161.897 108.781C163.69 108.776 163.918 108.546 163.944 106.724C164.036 100.566 159.262 96.544 153.138 97.6796C149.368 98.378 146.712 100.523 145.701 104.265C144.594 108.358 145.161 112.242 148.281 115.354C151.55 118.614 158.033 118.868 162.139 116.06C163.97 114.808 163.97 114.808 162.582 113.079C161.558 111.805 161.016 111.694 159.556 112.401C158.883 112.727 158.217 113.128 157.502 113.292C154.379 114.005 152.041 113.064 151.278 109.781C151.112 109.073 151.273 108.755 152.069 108.774ZM151.285 104.928C151.394 103.379 152.986 101.77 154.638 101.604C156.578 101.409 158.044 102.447 158.492 104.298C158.677 105.061 158.594 105.491 157.644 105.415C156.746 105.343 155.836 105.398 154.931 105.398C153.908 105.398 152.887 105.4 151.863 105.396C151.56 105.396 151.247 105.457 151.285 104.928Z" fill="#FDFDFD"/>
<path d="M121.625 108.769C123.319 108.838 125.017 108.788 126.714 108.788C128.251 108.788 129.791 108.791 131.329 108.786C133.059 108.781 133.3 108.544 133.355 106.828C133.547 100.621 128.699 96.4989 122.582 97.6701C119.007 98.3543 116.401 100.331 115.278 103.814C113.986 107.817 114.446 111.703 117.325 114.925C120.556 118.543 127.171 119.013 131.478 116.134C133.442 114.82 133.442 114.81 131.936 112.995C130.945 111.805 130.426 111.708 129 112.411C128.365 112.725 127.728 113.048 127.062 113.278C124.16 114.281 121.305 112.732 120.736 109.895C120.582 109.118 120.682 108.731 121.625 108.769ZM120.807 104.659C121.246 102.828 122.681 101.609 124.501 101.599C126.34 101.59 127.704 102.749 127.962 104.5C128.055 105.12 127.972 105.439 127.216 105.42C125.285 105.372 123.352 105.391 121.419 105.412C120.845 105.417 120.658 105.275 120.807 104.659Z" fill="#FDFDFD"/>
<path d="M34.5153 116.647C34.4703 114.592 34.5011 112.535 34.5011 110.48C34.4845 110.48 34.4679 110.48 34.4514 110.48C34.4514 108.384 34.5651 106.282 34.4229 104.196C34.2381 101.485 32.9161 99.4115 30.3976 98.2379C27.0996 96.6985 21.4134 97.6155 18.6912 100.1C18.4898 100.283 18.2197 100.431 18.2197 100.747C18.215 102.31 20.4302 103.852 21.8991 103.281C22.7047 102.968 23.4486 102.452 24.2731 102.234C26.9172 101.531 28.6823 102.281 28.7391 105.006C28.7581 105.892 28.5283 106.201 27.6398 106.168C26.8982 106.142 26.1448 106.253 25.4056 106.365C23.0932 106.714 20.8282 107.239 18.9779 108.788C17.291 110.199 16.8503 112.057 17.3715 114.143C17.8833 116.195 19.2693 117.381 21.3021 117.773C23.9912 118.293 26.4789 117.832 28.6088 116.003C29.1822 115.511 29.5328 115.526 29.7603 116.295C30.0825 117.381 30.8999 117.728 31.9447 117.716C32.4565 117.711 32.9753 117.673 33.4823 117.733C34.3447 117.837 34.5319 117.438 34.5153 116.647ZM28.7273 110.993C28.7202 112.649 27.9881 113.511 26.377 113.879C25.7183 114.029 25.0479 114.005 24.3726 113.977C23.6547 113.946 23.1098 113.613 22.9392 112.95C22.7521 112.228 22.7165 111.477 23.4463 110.914C24.8867 109.803 26.5926 109.667 28.2771 109.698C29.2367 109.712 28.3814 110.705 28.7273 110.993Z" fill="#FDFDFD"/>
<g clip-path="url(#clip0_29_330)">
<rect width="60" height="65" transform="translate(69)" fill="#FDFDFD"/>
<path d="M69.0763 59.5807C69.1459 59.4613 69.1179 59.3304 69.1172 59.2041C69.0741 39.9976 69.0854 20.7912 69.1134 1.58554C69.1141 1.22667 69.1149 0.867029 69.1111 0.508159C69.1096 0.270967 69.2026 0.157761 69.4512 0.161612C73.8068 0.230151 78.1631 0.14775 82.5194 0.158531C86.6732 0.168543 90.8277 0.178554 94.9815 0.181634C99.7029 0.185485 104.424 0.182405 109.146 0.178554C109.288 0.178554 109.448 0.242473 109.576 0.113865C110.519 0.0661186 111.464 0.133888 112.407 0.0892218C114.772 -0.0232136 117.14 -0.0139724 119.505 0.0330041C121.166 0.0661186 122.828 0.125417 124.488 0.0776702C125.329 0.053797 126.168 0.113095 127.01 0.0591877C127.52 0.0268432 128.039 0.0946126 128.555 0.103854C128.825 0.108474 128.961 0.262496 128.989 0.536653C129.02 0.846236 128.954 1.14966 128.959 1.45847C128.991 3.50926 129.005 5.56005 128.995 7.61007C128.989 8.87767 128.96 10.146 128.961 11.4136C128.965 14.2607 128.942 17.1078 128.969 19.9549C128.983 21.4412 128.967 22.9275 128.992 24.413C129.011 25.5905 128.937 26.7711 128.975 27.947C129.008 28.9851 128.978 30.0225 128.977 31.0583C128.974 32.6739 128.986 34.2904 128.959 35.9068C128.951 36.382 129.016 36.8541 128.998 37.3285C128.993 37.444 128.999 37.5603 128.972 37.6735C128.954 37.7489 128.934 37.839 128.851 37.8514C128.773 37.8629 128.717 37.7928 128.669 37.7312C128.589 37.6296 128.536 37.5117 128.495 37.3908C128.209 36.5414 127.941 35.6866 127.641 34.8418C127.243 33.7213 126.891 32.5831 126.515 31.4541C126.123 30.2766 125.726 29.1006 125.326 27.9255C124.893 26.654 124.462 25.3818 124.042 24.1065C123.782 23.3156 123.492 22.5363 123.243 21.7415C122.761 20.2044 121.265 19.1678 119.606 19.5744C118.052 19.9556 116.503 20.3576 114.95 20.7458C114.18 20.9383 113.417 21.1609 112.644 21.3411C112.484 21.378 112.324 21.4073 112.159 21.4104C111.849 21.4165 111.688 21.2841 111.614 20.9568C111.328 19.6946 111.031 18.4324 110.621 17.2056C109.815 14.7936 108.372 12.8699 106.282 11.4583C104.778 10.4433 103.156 9.73942 101.344 9.58771C99.359 9.42136 97.4348 9.63776 95.5907 10.5003C94.3013 11.1033 93.1435 11.8795 92.1541 12.9007C90.8882 14.2076 89.9699 15.7432 89.4144 17.4967C89.0479 18.6542 88.8521 19.8409 88.8778 21.0553C88.8975 21.9926 89.0479 22.9167 89.2663 23.83C89.614 25.2879 89.982 26.7403 90.3267 28.1989C90.6259 29.4672 90.9011 30.7433 91.2956 31.987C91.4732 32.5469 91.8443 32.8072 92.294 32.7163C92.7255 32.6293 93.0467 32.1595 93.0271 31.6389C93.015 31.3139 92.8941 31.0136 92.8132 30.704C92.7837 30.5923 92.7429 30.4845 92.7195 30.3713C92.6847 30.2019 92.659 30.0302 92.826 29.92C93.0089 29.7991 93.1881 29.89 93.3037 30.0209C93.764 30.5423 94.1955 31.1122 94.1426 31.8515C94.0444 33.2184 93.2863 34.3435 91.6735 34.4683C90.929 34.526 89.8331 33.8437 89.4885 33.1037C89.1544 32.3875 89.0313 31.6666 89.4348 30.9281C89.5633 30.694 89.5543 30.4437 89.487 30.1819C89.2958 29.4372 89.0766 28.7002 88.939 27.9416C88.8506 27.4549 88.701 27.3494 88.2316 27.4757C87.2212 27.7483 86.2046 27.994 85.1889 28.2412C84.3069 28.4561 83.4362 28.7125 82.5565 28.9335C80.9036 29.3486 79.9468 30.9759 80.3352 32.6624C80.4584 33.1984 80.5211 33.7467 80.5748 34.2965C80.636 34.918 80.7774 35.5303 80.8673 36.1487C81.1447 38.05 81.4908 39.9399 81.7448 41.8451C81.9398 43.3052 82.1945 44.7561 82.4174 46.2124C82.7394 48.3132 83.0689 50.4141 83.3833 52.5157C83.709 54.6943 84.0499 56.8714 84.3832 59.0493C84.6409 60.732 84.8299 62.4277 85.1813 64.0958C85.2047 64.2082 85.2251 64.323 85.2304 64.4385C85.2471 64.8128 85.1246 64.9575 84.7634 64.9899C84.6507 64.9999 84.5366 64.996 84.4233 64.996C79.5621 64.996 74.7009 64.996 69.8397 64.996C69.777 64.996 69.7135 64.9968 69.6507 64.9953C69.1096 64.9837 69.0076 64.8875 69.0061 64.3391C69.0008 62.9145 69.0053 61.4905 69.003 60.0658C69 59.901 69.0272 59.7393 69.0763 59.5807Z" fill="#FD0707"/>
<path d="M112.3 49.854C112.374 49.8933 112.457 49.9264 112.529 49.9772C113.986 51.0284 115.564 51.8855 117.048 52.8952C117.466 53.1793 117.894 53.4504 118.293 53.7592C118.6 53.9964 118.573 54.1373 118.207 54.222C117.717 54.3345 117.249 54.537 116.742 54.5763C116.445 54.5994 116.354 54.7511 116.536 55.0099C116.901 55.5297 117.264 56.0518 117.65 56.5562C117.938 56.9328 117.947 57.0283 117.604 57.3456C117.548 57.3972 117.496 57.4542 117.437 57.5019C116.913 57.9224 116.872 57.8954 116.509 57.321C116.184 56.8057 115.784 56.3429 115.459 55.8231C115.287 55.5466 115.034 55.5813 114.926 55.8916C114.745 56.4099 114.23 56.7064 114.095 57.2516C114.073 57.3417 113.968 57.4157 113.851 57.3949C113.71 57.3695 113.692 57.247 113.674 57.1323C113.496 56.058 113.198 55.0106 112.97 53.9471C112.702 52.6957 112.424 51.4466 112.151 50.1967C112.119 50.0496 112.043 49.884 112.3 49.854Z" fill="#E13637"/>
<path d="M111.102 47.9545C111.115 48.1154 111.074 48.1763 110.993 48.1986C110.82 48.2463 110.664 48.2078 110.557 48.0592C110.363 47.7927 110.179 47.5186 109.993 47.2467C109.564 46.6199 109.137 45.9899 108.706 45.3646C108.585 45.189 108.454 45.0003 108.663 44.8286C108.879 44.6523 109.049 44.834 109.167 44.9973C109.536 45.5102 109.89 46.0354 110.248 46.5567C110.462 46.8702 110.681 47.1828 110.883 47.5047C110.981 47.6649 111.049 47.8451 111.102 47.9545Z" fill="#EB3A30"/>
<path d="M113.471 47.1321C113.633 46.1841 113.797 45.2122 113.965 44.2411C113.998 44.054 113.982 43.8546 114.089 43.6836C114.168 43.5581 114.261 43.4572 114.426 43.4988C114.6 43.5427 114.63 43.6851 114.608 43.8307C114.529 44.3359 114.454 44.8426 114.348 45.3416C114.216 45.9554 114.095 46.5707 114.02 47.1945C113.994 47.4148 113.912 47.5742 113.669 47.5457C113.434 47.5179 113.475 47.3193 113.471 47.1321Z" fill="#EB432F"/>
<path d="M109.011 50.7901C108.017 50.6092 106.967 50.422 105.919 50.2256C105.72 50.1887 105.535 50.0709 105.575 49.8437C105.621 49.5826 105.85 49.6365 106.037 49.6689C107.04 49.8406 108.043 50.0139 109.046 50.1864C109.083 50.1925 109.12 50.2018 109.157 50.2102C109.344 50.2511 109.5 50.3281 109.471 50.5622C109.44 50.8202 109.242 50.7894 109.011 50.7901Z" fill="#EA3E2C"/>
<path d="M117.328 48.4872C117.051 48.6843 116.774 48.8807 116.499 49.0794C116.353 49.1841 116.18 49.245 116.053 49.1102C115.894 48.9416 116.029 48.7798 116.153 48.6474C116.53 48.2462 117.026 48.0097 117.449 47.6701C117.743 47.4345 118.062 47.2312 118.37 47.0132C118.548 46.9193 118.694 46.7753 118.872 46.6759C119.021 46.5927 119.148 46.5535 119.269 46.7098C119.403 46.8831 119.284 46.9932 119.171 47.0995C118.857 47.396 118.506 47.6462 118.155 47.8904C117.876 48.0844 117.603 48.2862 117.328 48.4872Z" fill="#EE3B27"/>
<path d="M107.193 55.0285C107.964 54.4463 108.728 53.8549 109.51 53.2888C109.7 53.1518 109.974 52.9631 110.164 53.2742C110.335 53.553 110.141 53.7848 109.907 53.8972C109.462 54.1121 109.164 54.5333 108.711 54.7274C108.687 54.6989 108.674 54.6658 108.674 54.628C108.902 54.3192 109.227 54.1236 109.514 53.8857C109.573 53.8379 109.644 53.8087 109.705 53.7632C109.809 53.6854 110.006 53.6207 109.901 53.459C109.812 53.3227 109.675 53.4667 109.578 53.5299C108.957 53.9357 108.363 54.3808 107.776 54.8383C107.63 54.9523 107.493 55.0963 107.283 55.0855C107.248 55.0762 107.218 55.057 107.193 55.0285Z" fill="#F4A6A1"/>
<path d="M117.328 48.4873C117.712 48.0098 118.277 47.768 118.73 47.3799C118.854 47.2736 118.994 47.1858 119.113 47.0749C119.198 46.9964 119.332 46.9209 119.216 46.7622C119.096 46.599 118.975 46.6914 118.854 46.7522C118.69 46.8346 118.579 47.0179 118.37 47.0125C118.5 46.7907 118.739 46.716 118.929 46.5743C119.108 46.4403 119.224 46.5043 119.345 46.6506C119.47 46.8007 119.438 46.927 119.311 47.0533C118.959 47.4045 118.563 47.7025 118.155 47.9736C117.887 48.1531 117.645 48.3872 117.328 48.4873Z" fill="#E5817D"/>
<path d="M107.193 55.0283C107.228 55.0337 107.262 55.0399 107.297 55.0453C107.299 55.113 107.263 55.1608 107.224 55.2108C107.156 55.2994 106.967 55.3618 107.079 55.4981C107.154 55.5905 107.278 55.4688 107.373 55.4165C107.469 55.3633 107.554 55.2832 107.675 55.2955C107.711 55.3056 107.735 55.3287 107.747 55.3641C107.554 55.5882 107.326 55.7576 107.029 55.7992C106.908 55.8161 106.769 55.8231 106.704 55.6806C106.646 55.5512 106.683 55.4311 106.785 55.3379C106.912 55.2224 107.001 55.0537 107.193 55.0283Z" fill="#EF9C92"/>
<path d="M108.704 54.6318C108.706 54.6634 108.708 54.695 108.711 54.7266C108.414 54.9768 108.113 55.2202 107.747 55.3634C107.735 55.348 107.723 55.3326 107.711 55.3172C107.942 54.9399 108.287 54.7312 108.704 54.6318Z" fill="#EF9C92"/>
<path d="M90.8489 20.8958C90.963 17.4911 92.3242 14.7403 95.178 12.9205C97.734 11.2902 100.513 11.0338 103.356 12.1127C106.228 13.2016 108.049 15.3125 108.945 18.2774C109.476 20.0309 109.818 21.8322 110.26 23.6081C110.543 24.7509 110.836 25.8914 111.126 27.0327C111.256 27.5479 111.71 27.9076 112.161 27.8552C112.627 27.8013 113.07 27.293 113.102 26.7994C113.132 26.3358 112.953 25.9222 112.839 25.4917C112.788 25.3015 112.644 25.0243 112.811 24.9234C113.034 24.7879 113.217 25.0443 113.357 25.2168C113.96 25.9623 114.19 26.7917 113.816 27.7189C113.419 28.7062 112.72 29.303 111.639 29.3276C110.31 29.3584 109.09 27.9561 109.26 26.6107C109.282 26.4474 109.319 26.2873 109.421 26.1448C109.653 25.819 109.651 25.4663 109.552 25.0836C109.348 24.2919 109.083 23.5164 108.968 22.7017C108.913 22.3081 108.765 22.2288 108.303 22.3412C107.165 22.6177 106.033 22.9127 104.897 23.1945C103.053 23.6512 101.207 24.0955 99.365 24.5576C97.9494 24.9126 96.5392 25.2877 95.1258 25.6504C94.1993 25.8876 93.2719 26.1217 92.3431 26.3489C92.1209 26.4036 91.8903 26.4575 91.8299 26.1032C91.6198 24.8657 91.1912 23.6789 90.9963 22.4367C90.9139 21.9262 90.8663 21.4179 90.8489 20.8958Z" fill="#FD0908"/>
<path d="M113.997 57.0077C113.853 56.8968 113.783 56.752 113.745 56.5879C113.529 55.6592 113.304 54.732 113.1 53.8002C112.863 52.7182 112.646 51.6323 112.42 50.548C112.399 50.4517 112.337 50.3539 112.442 50.2661C112.566 50.1622 112.612 50.2993 112.692 50.3416C113.414 50.7244 114.118 51.1549 114.779 51.6223C115.652 52.2392 116.645 52.6681 117.435 53.4082C117.545 53.5114 117.716 53.5121 117.817 53.6438C117.901 53.7532 118.04 53.834 117.99 54.0004C117.946 54.1459 117.809 54.1575 117.686 54.1852C117.344 54.2622 117.003 54.3462 116.66 54.4232C116.219 54.5218 116.172 54.6912 116.416 55.0862C116.761 55.6469 117.215 56.1282 117.52 56.7212C117.643 56.9607 117.665 57.1024 117.448 57.2564C117.397 57.2926 117.357 57.345 117.307 57.3835C116.921 57.6761 116.894 57.6576 116.623 57.2287C116.298 56.7158 115.958 56.2106 115.604 55.7185C115.348 55.3627 114.93 55.4205 114.78 55.8332C114.625 56.2599 114.188 56.4978 114.088 56.9553C114.082 56.9776 114.029 56.9899 113.997 57.0077Z" fill="#FD0C07"/>
<path d="M108.703 54.6317C108.372 54.8605 108.041 55.0892 107.71 55.3171C107.563 55.4103 107.42 55.5127 107.266 55.5944C107.155 55.6537 107.006 55.6991 106.922 55.5821C106.833 55.4581 106.932 55.3418 107.032 55.2555C107.117 55.1816 107.208 55.1146 107.296 55.0438C108.008 54.5316 108.719 54.0187 109.431 53.5066C109.502 53.455 109.571 53.398 109.647 53.3557C109.767 53.2887 109.91 53.1901 110.013 53.348C110.124 53.5166 110.041 53.683 109.883 53.7669C109.449 53.9987 109.105 54.3553 108.703 54.6317Z" fill="#EA332A"/>
</g>
<defs>
<clipPath id="clip0_29_330">
<rect width="60" height="65" fill="white" transform="translate(69)"/>
</clipPath>
</defs>
</svg>
