<svg width="10" height="14" viewBox="0 0 10 14" fill="none" xmlns="http://www.w3.org/2000/svg">
<g clip-path="url(#clip0_29_259)">
<path d="M9.07267 4.59502C8.34881 3.02657 7.32211 1.71528 5.79544 0.845266C4.97175 0.375607 4.1017 0.0495598 3.14267 0.000715297C3.02029 -0.00554682 2.99565 0.0140745 3.02781 0.142657C3.20575 0.857372 3.21577 1.57501 3.03783 2.29307C2.85112 3.04577 2.48522 3.71457 2.07714 4.36457C1.59303 5.13607 1.06548 5.88001 0.63693 6.68615C0.062184 7.76824 -0.157523 8.89459 0.118155 10.1107C0.810273 13.1637 4.21656 14.8749 7.04518 13.5427C9.01628 12.6143 9.954 10.9962 9.99953 9.26823C9.97238 7.36079 9.69294 5.93887 9.07267 4.59502ZM6.3397 11.5013C6.11247 12.153 5.615 12.5062 4.96173 12.4932C4.32308 12.4807 3.83061 12.1058 3.63305 11.455C3.39329 10.6663 3.46973 9.89151 3.77339 9.13255C3.90079 8.81401 4.0474 8.50383 4.19735 8.19532C4.35691 7.86677 4.49141 7.5307 4.5102 7.14453C4.86608 7.33782 5.14969 7.59457 5.39947 7.88973C5.9479 8.53765 6.33719 9.26447 6.46208 10.1128C6.53142 10.5829 6.49675 11.0504 6.3397 11.5013Z" fill="#FE8800"/>
</g>
<defs>
<clipPath id="clip0_29_259">
<rect width="10" height="14" fill="white"/>
</clipPath>
</defs>
</svg>
