<svg width="36" height="25" viewBox="0 0 36 25" fill="none" xmlns="http://www.w3.org/2000/svg">
<g clip-path="url(#clip0_48_415)">
<path d="M0 3.38464C0 1.72779 1.34315 0.384644 3 0.384644H33C34.6569 0.384644 36 1.72779 36 3.38464V21.3846C36 23.0415 34.6569 24.3846 33 24.3846H3C1.34315 24.3846 0 23.0415 0 21.3846V3.38464Z" fill="#E4E5E7"/>
<path d="M17.1869 13.1909V16.6588H16.0791V8.09475H19.0172C19.3679 8.08748 19.7166 8.14925 20.0431 8.2765C20.3697 8.40375 20.6676 8.59396 20.9197 8.83615C21.1744 9.06364 21.3771 9.34263 21.5142 9.65438C21.6512 9.96612 21.7195 10.3034 21.7145 10.6435C21.7218 10.9855 21.6545 11.3249 21.5173 11.6387C21.3802 11.9524 21.1763 12.233 20.9197 12.4611C20.406 12.9477 19.7718 13.1907 19.0172 13.1902H17.1869V13.1909ZM17.1869 9.14911V12.1386H19.0447C19.2484 12.1446 19.4511 12.1083 19.6398 12.0321C19.8286 11.9558 19.9992 11.8413 20.1408 11.6958C20.2817 11.5598 20.3937 11.3971 20.4702 11.2174C20.5466 11.0376 20.586 10.8445 20.586 10.6493C20.586 10.4542 20.5466 10.261 20.4702 10.0813C20.3937 9.90155 20.2817 9.73885 20.1408 9.60283C20.001 9.45428 19.8309 9.33695 19.642 9.25861C19.453 9.18027 19.2494 9.14271 19.0447 9.14843H17.1869V9.14911Z" fill="#5F6368"/>
<path d="M24.2686 10.608C25.0874 10.608 25.7337 10.8253 26.2076 11.2599C26.6814 11.6945 26.9181 12.2904 26.9177 13.0475V16.6588H25.858V15.8457H25.8099C25.3511 16.5153 24.741 16.8501 23.9796 16.8501C23.3296 16.8501 22.7858 16.6588 22.3481 16.2761C22.1381 16.1005 21.9702 15.8806 21.8567 15.6323C21.7431 15.3841 21.6867 15.1138 21.6917 14.8412C21.6917 14.2348 21.9224 13.7527 22.3839 13.3946C22.8454 13.0365 23.4614 12.8571 24.2321 12.8561C24.8899 12.8561 25.4316 12.9757 25.8573 13.2149V12.9634C25.8586 12.7776 25.8182 12.5938 25.739 12.4254C25.6599 12.2569 25.544 12.1081 25.3998 11.9897C25.1068 11.7272 24.725 11.584 24.3305 11.5886C23.7117 11.5886 23.222 11.8478 22.8614 12.3662L21.8857 11.756C22.4224 10.9907 23.2167 10.608 24.2686 10.608ZM22.8353 14.8651C22.8346 15.0051 22.8675 15.1433 22.9314 15.2681C22.9953 15.3929 23.0884 15.5007 23.2027 15.5826C23.4477 15.774 23.7518 15.8754 24.0635 15.8696C24.531 15.8688 24.9791 15.684 25.3096 15.3557C25.6766 15.0127 25.8601 14.6102 25.8601 14.1483C25.5147 13.875 25.033 13.7383 24.4151 13.7383C23.9651 13.7383 23.5899 13.846 23.2894 14.0615C22.986 14.2802 22.8353 14.546 22.8353 14.8651Z" fill="#5F6368"/>
<path d="M33 10.7994L29.3009 19.2417H28.1573L29.53 16.2878L27.0977 10.7994H28.3018L30.0598 15.0086H30.0839L31.7938 10.7994H33Z" fill="#5F6368"/>
<path d="M12.7115 12.4434C12.7119 12.1081 12.6833 11.7734 12.6261 11.443H7.9541V13.3378H10.63C10.5753 13.6405 10.4594 13.929 10.2893 14.1859C10.1193 14.4429 9.89859 14.663 9.64058 14.8329V16.0629H11.2376C12.1727 15.2067 12.7115 13.9405 12.7115 12.4434Z" fill="#4285F4"/>
<path d="M7.95375 17.2512C9.29069 17.2512 10.4164 16.8153 11.2373 16.0636L9.64023 14.8336C9.19573 15.1329 8.62325 15.3038 7.95375 15.3038C6.66154 15.3038 5.56474 14.4387 5.17254 13.2729H3.52734V14.5405C3.93969 15.3553 4.57197 16.0403 5.3536 16.519C6.13523 16.9977 7.03545 17.2512 7.95375 17.2512Z" fill="#34A853"/>
<path d="M5.17273 13.273C4.96538 12.6621 4.96538 12.0006 5.17273 11.3897V10.1222H3.52753C3.18065 10.8077 3 11.5642 3 12.3314C3 13.0985 3.18065 13.855 3.52753 14.5405L5.17273 13.273Z" fill="#FBBC04"/>
<path d="M7.95375 9.35891C8.66026 9.34744 9.34294 9.61254 9.85422 10.0969L11.2682 8.69267C10.3716 7.85635 9.18377 7.39719 7.95375 7.41146C7.03545 7.4115 6.13523 7.665 5.3536 8.14367C4.57197 8.62234 3.93969 9.30733 3.52734 10.1222L5.17254 11.3897C5.56474 10.224 6.66154 9.35891 7.95375 9.35891Z" fill="#EA4335"/>
</g>
<defs>
<clipPath id="clip0_48_415">
<rect width="36" height="24" fill="white" transform="translate(0 0.384644)"/>
</clipPath>
</defs>
</svg>
