<svg width="20" height="20" viewBox="0 0 20 20" fill="none" xmlns="http://www.w3.org/2000/svg">
<path d="M18.3333 7.385C18.3362 8.66729 17.8422 9.90083 16.955 10.8267C14.9208 12.9358 12.9475 15.135 10.8383 17.1667C10.3542 17.625 9.58666 17.6083 9.12416 17.1292L3.045 10.8275C1.2075 8.9225 1.2075 5.8475 3.045 3.94333C3.47928 3.4875 4.00161 3.1246 4.58032 2.87664C5.15903 2.62869 5.78207 2.50083 6.41166 2.50083C7.04126 2.50083 7.66429 2.62869 8.243 2.87664C8.82171 3.1246 9.34404 3.4875 9.77833 3.94333L10 4.17167L10.2208 3.94333C10.6556 3.48812 11.1781 3.12558 11.7566 2.87754C12.3352 2.62949 12.958 2.50107 13.5875 2.5C14.8542 2.5 16.065 3.02 16.9542 3.94333C17.8417 4.86904 18.336 6.10259 18.3333 7.385Z" stroke="#2E2C2C" stroke-width="1.5" stroke-linejoin="round"/>
</svg>
