<svg width="252" height="48" viewBox="0 0 252 48" fill="none" xmlns="http://www.w3.org/2000/svg">
<g clip-path="url(#clip0_29_86)">
<path d="M20.9486 24.7872C20.1697 25.4701 19.2783 25.4957 18.3981 25.0175C17.5742 24.5707 17.3153 23.8622 17.5855 23.0475C17.9051 22.0891 17.3491 21.2605 17.1128 20.3867C17.0137 20.0207 16.6423 20.1446 16.3609 20.2057C14.6906 20.5697 13.0135 20.9141 11.3545 21.3176C10.1772 21.603 9.35326 22.7779 9.54685 23.8563C10.6004 29.7407 11.6719 35.6212 12.7299 41.5055C13.0721 43.4125 13.3759 45.3235 13.7361 47.2285C13.8532 47.8504 13.6393 48.0039 12.937 48C8.9233 47.9724 4.90962 47.9744 0.895932 48C0.238615 48.0039 0 47.8977 0 47.2581C0.0225109 31.7481 0.0225109 16.2401 0 0.730135C0 0.0747848 0.272381 0 0.909439 0C17.527 0.0137761 34.1467 0.0118081 50.7642 0.00393604C51.399 0.00393604 51.7885 0.0255843 51.7862 0.76556C51.757 9.55277 51.766 18.34 51.7637 27.1272C51.7637 27.2748 51.7367 27.4224 51.5138 27.5956C50.8768 25.9779 50.2375 24.3601 49.6049 22.7405C48.7585 20.5737 47.9279 18.401 47.077 16.2362C46.3949 14.5004 45.2446 13.9907 43.1533 14.4453C41.375 14.833 39.5718 15.1439 37.8137 15.5946C37.0461 15.7914 36.8773 15.508 36.7512 15.0081C36.4856 13.9533 36.2357 12.8964 35.7315 11.9026C33.7483 7.98819 28.4942 5.89619 23.947 7.21476C18.9586 8.66519 16.1403 12.8984 17.2906 17.2458C17.8218 19.2551 18.3846 21.2585 18.9631 23.2581C19.2738 24.3287 19.697 24.4428 20.7438 23.8052C20.9126 23.5729 20.7888 23.3092 20.8473 23.0672C20.9621 22.583 21.203 22.831 21.4281 23.0002L21.4236 22.9943C21.7005 23.6792 21.3673 24.2421 20.9486 24.7872Z" fill="#F90606"/>
<path d="M162.177 12.4025C165.16 12.4379 167.616 12.9811 169.793 14.3547C170.306 14.6795 170.497 14.953 170.114 15.4726C169.691 16.0472 169.387 16.6868 168.982 17.2733C168.395 18.1235 167.713 18.3006 166.709 17.848C165.545 17.3205 164.397 16.7852 163.071 16.6081C162.139 16.4841 161.256 16.6376 160.437 16.9565C158.787 17.6 158.587 19.5857 160.066 20.495C161.376 21.2999 162.945 21.5695 164.426 22.0182C166.234 22.5653 168.084 23.0908 169.324 24.4625C172.303 27.755 170.792 33.0647 166.36 35.0209C162.184 36.863 156.399 35.8986 152.837 33.3934C152.396 33.0824 152.362 32.7971 152.682 32.3956C153.11 31.8603 153.481 31.2895 153.882 30.7365C154.548 29.8234 155.471 29.6148 156.576 30.1363C157.398 30.524 158.186 30.9707 159.035 31.3014C160.34 31.8091 161.711 31.8957 163.1 31.5415C164.214 31.2581 164.896 30.6558 165.02 29.6089C165.167 28.3572 164.786 27.6664 163.589 27.0898C162.062 26.3557 160.338 26.1176 158.719 25.6157C156.606 24.9604 154.8 24.0256 153.891 22.0989C151.908 17.8972 155.093 13.1129 160.277 12.554C161.02 12.4733 161.77 12.434 162.177 12.4025Z" fill="#F52828"/>
<path d="M63.8971 24.191C63.8971 20.6505 63.9219 17.112 63.8768 13.5715C63.8678 12.8001 64.1064 12.5757 65.0024 12.5836C69.9525 12.6229 74.9026 12.6229 79.8505 12.5914C80.6812 12.5855 81.0008 12.7646 80.9288 13.5184C80.8568 14.2662 80.832 15.0338 80.9401 15.7757C81.0684 16.6652 80.6362 16.7991 79.7492 16.7853C76.9376 16.742 74.1238 16.803 71.3122 16.7499C70.3645 16.7322 69.9615 16.8975 70.0313 17.8165C70.1281 19.0898 70.0988 20.373 70.038 21.6502C70.002 22.3981 70.2114 22.6854 71.1456 22.6598C73.4304 22.5969 75.7198 22.6657 78.0069 22.6224C78.8105 22.6067 79.1775 22.7602 79.1009 23.5356C79.0221 24.3484 79.0334 25.175 79.0897 25.9917C79.1324 26.6037 78.8916 26.773 78.205 26.7632C75.8053 26.7297 73.4057 26.771 71.006 26.7356C70.2699 26.7238 70.0335 26.9167 70.0448 27.5681C70.0831 29.9927 70.0335 32.4192 70.0741 34.8438C70.0853 35.5326 69.9503 35.8495 69.0453 35.8023C67.6632 35.7295 66.2697 35.7491 64.8853 35.8023C64.0862 35.8318 63.8791 35.5917 63.8858 34.9108C63.9173 31.3368 63.8971 27.7629 63.8971 24.191Z" fill="#F52828"/>
<path d="M97.8862 19.2925C99.4958 19.2925 100.993 19.2807 102.487 19.2964C103.334 19.3063 103.867 19.6802 104.117 20.4083C105.225 23.628 106.499 26.8044 107.451 30.0654C107.505 30.2524 107.611 30.4256 107.705 30.6342C108.86 27.4912 110.015 24.3857 111.143 21.2743C111.834 19.3692 111.933 19.2885 114.191 19.2905C114.976 19.2905 115.769 19.3299 116.55 19.2767C117.428 19.2177 117.455 19.4716 117.165 20.1072C115.782 23.1419 114.452 26.1963 113.097 29.2408C112.23 31.1892 111.312 33.1217 110.51 35.0917C110.265 35.692 109.916 35.814 109.288 35.7963C108.203 35.7668 107.113 35.7609 106.028 35.7963C105.387 35.816 105.036 35.6585 104.786 35.0878C102.557 29.9906 100.288 24.9053 98.0325 19.816C97.9853 19.6979 97.965 19.57 97.8862 19.2925Z" fill="#F62828"/>
<path d="M241.316 27.5325C241.316 26.1904 241.292 24.8462 241.328 23.504C241.343 22.949 241.235 22.6853 240.488 22.6814C238.86 22.6715 238.048 21.4435 238.651 20.0521C238.813 19.6782 239.173 19.692 239.484 19.692C241.231 19.692 242.115 18.9303 242.203 17.4209C242.208 17.3244 242.239 17.226 242.264 17.1316C242.98 14.4137 242.98 14.4275 246.176 14.5377C246.75 14.5574 246.967 14.6814 246.949 15.2068C246.908 16.3522 246.96 17.4996 246.924 18.6469C246.908 19.1606 247.108 19.3416 247.696 19.3259C248.745 19.2944 249.796 19.3357 250.843 19.3062C251.408 19.2905 251.611 19.4302 251.64 19.9596C251.786 22.705 251.806 22.705 248.713 22.703C248.488 22.703 248.261 22.7188 248.038 22.6991C247.183 22.6223 246.892 22.9136 246.915 23.6929C246.978 25.9857 246.928 28.2784 246.942 30.5712C246.951 31.9921 247.563 32.3758 249.103 31.9547C249.51 31.8425 249.949 31.7343 250.235 32.0846C250.823 32.8009 251.358 33.5507 251.912 34.2868C252.176 34.6371 251.802 34.7827 251.579 34.889C249.085 36.0777 246.467 36.4733 243.835 35.3731C242.095 34.6469 241.411 33.1945 241.341 31.5611C241.285 30.2189 241.33 28.8747 241.33 27.5325C241.325 27.5325 241.321 27.5325 241.316 27.5325Z" fill="#F52828"/>
<path d="M227.249 27.324C227.254 28.2312 227.317 28.9732 227.531 29.7131C228.42 32.7734 231.887 32.8738 233.807 31.6241C235.214 30.709 237.35 31.4981 237.715 33.045C237.816 33.474 237.413 33.6216 237.156 33.8165C234.09 36.121 230.538 36.5953 226.867 35.4047C223.348 34.2652 221.817 31.6457 221.505 28.5068C221.232 25.7712 221.86 23.2266 224.186 21.1897C227.342 18.4246 233.951 18.3301 237.186 20.9889C237.616 21.3412 237.771 21.6344 237.289 22.0339C237.102 22.1894 236.97 22.3961 236.812 22.5791C235.596 23.9961 235.374 24.0413 233.597 23.2246C230.466 21.786 227.648 23.1203 227.317 26.2022C227.272 26.6253 227.265 27.0524 227.249 27.324Z" fill="#F52828"/>
<path d="M37.8588 18.4167C38.7795 18.9756 39.0856 19.8553 38.6804 20.6425C38.327 21.3254 37.1677 21.782 36.301 21.5793C35.4006 21.3687 34.6555 20.554 34.8468 19.7215C35.0427 18.8733 34.795 18.1195 34.66 17.3146C34.5114 16.4192 34.0049 16.3877 33.2013 16.5668C30.5923 17.1473 27.9788 17.7062 25.3653 18.2711C23.7287 18.6253 22.0899 18.9717 20.4534 19.3259C20.1247 19.3968 19.733 19.5444 19.616 19.1311C19.0014 16.9682 18.3441 14.8192 19.4787 12.6051C20.9059 9.82236 23.9786 8.23023 27.6479 8.46836C30.8489 8.675 33.7033 10.8024 34.5339 13.6128C35.1057 15.5434 35.6685 17.474 36.22 19.4086C36.3776 19.9596 36.4609 20.615 37.3545 20.4575C38.2347 20.3021 38.0704 19.6861 37.9263 19.1213C37.8768 18.9067 37.8835 18.6784 37.8588 18.4167Z" fill="#F90606"/>
<path d="M199.023 24.0079C199.023 27.6428 199.005 31.2778 199.039 34.9127C199.045 35.5917 198.836 35.8337 198.037 35.8003C196.765 35.7472 195.489 35.7649 194.217 35.7944C193.614 35.8082 193.352 35.6783 193.355 35.0918C193.373 27.6251 193.371 20.1585 193.357 12.6938C193.357 12.188 193.535 11.9951 194.127 12.005C195.437 12.0305 196.752 12.0502 198.06 11.9912C198.895 11.9538 199.045 12.2628 199.039 12.9063C199.009 16.6082 199.023 20.308 199.023 24.0079Z" fill="#F52828"/>
<path d="M145.1 21.6227C145.706 21.0303 146.174 20.5206 146.703 20.064C147.356 19.5011 148.133 19.1292 149.076 19.0524C151.532 18.8537 151.973 19.2315 151.579 21.3235C151.442 22.0576 151.786 22.9786 151.138 23.4903C150.478 24.0118 149.477 23.5651 148.626 23.5907C146.843 23.6438 145.476 24.8227 145.467 26.4187C145.449 29.2369 145.429 32.0551 145.474 34.8733C145.485 35.6212 145.22 35.8377 144.389 35.8003C143.117 35.7432 141.841 35.7648 140.567 35.7944C139.982 35.8081 139.783 35.6291 139.786 35.1193C139.801 30.0399 139.801 24.9604 139.788 19.8829C139.786 19.4126 139.973 19.2512 140.506 19.2748C141.292 19.3102 142.082 19.324 142.867 19.2807C144.04 19.2177 144.738 19.5877 144.824 20.676C144.846 20.9594 144.983 21.233 145.1 21.6227Z" fill="#F52828"/>
<path d="M38.6353 42.3104C38.1694 40.5175 37.7192 38.7857 37.1969 36.7803C39.1891 37.8784 40.9292 38.8388 42.631 39.7776C42.6265 40.0708 42.4307 40.0964 42.2573 40.1338C40.8662 40.4329 40.8752 40.427 41.7238 41.5134C41.9692 41.8263 42.514 42.1431 41.8026 42.5426C41.1633 42.9008 41.062 42.3695 40.7964 42.1077C40.6973 42.0113 40.6073 41.903 40.5375 41.7889C40.1593 41.169 39.7834 40.9958 39.3489 41.7554C39.2319 41.9542 39.1126 42.1726 38.6353 42.3104Z" fill="#F60B0B"/>
<path d="M32.7037 41.1493C33.4421 40.37 34.2975 39.7363 35.4523 39.4824C34.7185 40.2618 33.773 40.7813 32.7037 41.1493Z" fill="#CF4E54"/>
<path d="M39.3557 32.6042C39.2049 33.4111 39.0789 34.0802 38.9551 34.7513C38.9235 34.9206 38.8425 35.1036 38.6399 35.0918C38.327 35.0741 38.3675 34.8399 38.4035 34.647C38.5251 33.9779 38.6489 33.3068 38.7862 32.6396C38.8222 32.4605 38.8447 32.1811 39.1081 32.2027C39.4773 32.2342 39.3557 32.5274 39.3557 32.6042Z" fill="#DA5C5F"/>
<path d="M40.6614 36.2469C41.357 35.4243 42.3339 34.9402 43.3762 34.5367C42.6941 35.3791 41.7329 35.8789 40.6614 36.2469Z" fill="#D04D56"/>
<path d="M34.2593 33.167C35.2115 33.7751 35.772 34.6174 36.2245 35.5286C35.27 34.9244 34.7162 34.0762 34.2593 33.167Z" fill="#D04852"/>
<path d="M31.6953 36.8531C32.7781 36.8492 33.8676 36.8925 34.8648 37.3806C33.7798 37.3688 32.6835 37.4494 31.6953 36.8531Z" fill="#D44244"/>
<path d="M21.4281 23.0003C20.4961 22.8113 21.2592 23.7225 20.746 23.8052C20.6807 23.2463 20.6177 22.6854 20.5457 22.0635C21.0949 22.2524 21.3538 22.5594 21.4281 23.0003Z" fill="#EA3234"/>
<path d="M20.9486 24.7873C21.1174 24.1909 21.5114 23.6419 21.4236 22.9944C21.8063 23.7009 21.6622 24.3012 20.9486 24.7873Z" fill="#EA3234"/>
<path d="M127.094 19.076C121.352 19.1173 117.709 22.5063 117.759 27.7589C117.806 32.6947 121.718 36.0187 127.425 35.9695C133.285 35.9203 137.006 32.6002 136.954 27.4657C136.902 22.1933 133.19 19.0327 127.094 19.076ZM130.678 30.3823C130.072 31.9331 128.87 32.4428 126.75 32.2814C125.282 32.1692 124.156 31.2344 123.828 29.8293C123.648 29.0598 123.522 28.2824 123.564 27.753C123.589 26.4738 123.659 25.4642 124.107 24.5058C124.665 23.3112 125.683 22.7739 127.38 22.7365C128.877 22.7031 130.029 23.1754 130.583 24.431C131.445 26.3951 131.448 28.4123 130.678 30.3823Z" fill="#F52828"/>
<path d="M208.363 28.369C210.013 28.4025 211.663 28.3789 213.313 28.3789C213.313 28.3769 213.313 28.3769 213.313 28.3749C214.776 28.3749 216.237 28.3769 217.7 28.3749C219.404 28.371 219.62 28.1801 219.645 26.6706C219.733 21.5695 215.197 18.2377 209.378 19.1784C205.796 19.757 203.273 21.5341 202.312 24.6337C201.261 28.0246 201.799 31.2423 204.763 33.8205C207.87 36.5206 214.029 36.7312 217.93 34.405C219.67 33.3678 219.67 33.3678 218.351 31.9351C217.378 30.8802 216.863 30.7877 215.476 31.3742C214.837 31.6438 214.204 31.9764 213.524 32.1122C210.557 32.7026 208.336 31.9233 207.611 29.2035C207.453 28.617 207.606 28.3533 208.363 28.369ZM207.618 25.1828C207.721 23.8997 209.234 22.5673 210.803 22.4296C212.647 22.2682 214.04 23.1282 214.465 24.6613C214.641 25.293 214.562 25.6492 213.659 25.5863C212.806 25.5272 211.942 25.5725 211.082 25.5725C210.11 25.5725 209.139 25.5744 208.167 25.5705C207.879 25.5705 207.582 25.6217 207.618 25.1828Z" fill="#F62828"/>
<path d="M179.436 28.365C181.046 28.4221 182.66 28.3808 184.272 28.3808C185.733 28.3808 187.196 28.3827 188.657 28.3788C190.3 28.3749 190.53 28.1781 190.581 26.7571C190.764 21.6147 186.158 18.2002 180.346 19.1704C176.949 19.7372 174.473 21.3746 173.406 24.2597C172.179 27.5758 172.615 30.7955 175.351 33.4641C178.421 36.4614 184.706 36.8511 188.798 34.4659C190.665 33.3776 190.665 33.3697 189.233 31.8661C188.292 30.8801 187.799 30.7995 186.444 31.382C185.841 31.6418 185.235 31.9094 184.602 32.1003C181.845 32.9308 179.132 31.6477 178.592 29.2979C178.446 28.6543 178.54 28.3335 179.436 28.365ZM178.66 24.9603C179.076 23.443 180.44 22.4334 182.169 22.4255C183.916 22.4177 185.213 23.378 185.458 24.8285C185.546 25.3421 185.467 25.6058 184.749 25.5901C182.914 25.5507 181.077 25.5665 179.24 25.5842C178.696 25.5881 178.518 25.4701 178.66 24.9603Z" fill="#F52828"/>
<path d="M96.6706 34.891C96.6278 33.1887 96.6571 31.4844 96.6571 29.782C96.6413 29.782 96.6256 29.782 96.6098 29.782C96.6098 28.0462 96.7179 26.3045 96.5828 24.5766C96.4072 22.3311 95.1511 20.613 92.7582 19.6408C89.6247 18.3656 84.2221 19.1252 81.6356 21.1838C81.4443 21.3353 81.1876 21.4573 81.1876 21.7191C81.1831 23.014 83.2879 24.2913 84.6836 23.8189C85.4489 23.5592 86.1558 23.1321 86.9392 22.951C89.4514 22.3685 91.1284 22.9904 91.1825 25.2477C91.2005 25.9818 90.9821 26.2376 90.138 26.2101C89.4334 26.1884 88.7175 26.2809 88.0152 26.3734C85.8181 26.6627 83.6661 27.0977 81.908 28.3808C80.3052 29.5498 79.8865 31.0888 80.3817 32.8167C80.868 34.5171 82.1849 35.4991 84.1163 35.8239C86.6713 36.2549 89.0349 35.8731 91.0586 34.3577C91.6034 33.9503 91.9366 33.9621 92.1527 34.5997C92.4588 35.4991 93.2354 35.7865 94.2282 35.7766C94.7144 35.7727 95.2074 35.7412 95.6891 35.7904C96.5085 35.877 96.6864 35.5464 96.6706 34.891ZM91.1712 30.2071C91.1644 31.5788 90.4689 32.2932 88.9381 32.5983C88.3123 32.7223 87.6753 32.7026 87.0337 32.679C86.3516 32.6534 85.8339 32.3779 85.6718 31.8288C85.494 31.2305 85.4602 30.6086 86.1535 30.1422C87.5222 29.2211 89.143 29.109 90.7435 29.1346C91.6552 29.1464 90.8425 29.969 91.1712 30.2071Z" fill="#F52828"/>
</g>
<defs>
<clipPath id="clip0_29_86">
<rect width="252" height="48" fill="white"/>
</clipPath>
</defs>
</svg>
