<svg width="36" height="24" viewBox="0 0 36 24" fill="none" xmlns="http://www.w3.org/2000/svg">
<g clip-path="url(#clip0_48_408)">
<path d="M0 3C0 1.34315 1.34315 0 3 0H33C34.6569 0 36 1.34315 36 3V21C36 22.6569 34.6569 24 33 24H3C1.34315 24 0 22.6569 0 21V3Z" fill="#FDEACE"/>
<path d="M21.7562 4.89554L14.0098 4.92224L14.2448 19.1045L21.9913 19.0778L21.7562 4.89554Z" fill="#FF5F00"/>
<path d="M14.5191 12.042C14.4711 9.15741 15.7632 6.59435 17.7871 4.93182C16.2594 3.73301 14.3441 3.01213 12.2679 3.01926C7.34942 3.03614 3.43732 7.08819 3.52039 12.0797C3.60346 17.0713 7.64998 21.096 12.5685 21.0791C14.6447 21.072 16.5357 20.3381 18.0233 19.1289C15.9448 17.5055 14.5671 14.9265 14.5191 12.042Z" fill="#EB001B"/>
<path d="M32.4794 11.9204C32.5625 16.9119 28.6504 20.964 23.7319 20.9808C21.6557 20.988 19.7405 20.2671 18.2127 19.0683C20.2614 17.4057 21.5287 14.8427 21.4807 11.9581C21.4327 9.07356 20.0555 6.51967 17.9765 4.87122C19.4641 3.66206 21.3552 2.92811 23.4313 2.92098C28.3499 2.90409 32.3968 6.9539 32.4794 11.9204Z" fill="#F79E1B"/>
</g>
<defs>
<clipPath id="clip0_48_408">
<rect width="36" height="24" fill="white"/>
</clipPath>
</defs>
</svg>
