<svg width="36" height="24" viewBox="0 0 36 24" fill="none" xmlns="http://www.w3.org/2000/svg">
<g clip-path="url(#clip0_48_399)">
<path d="M0 3C0 1.34315 1.34315 0 3 0H33C34.6569 0 36 1.34315 36 3V21C36 22.6569 34.6569 24 33 24H3C1.34315 24 0 22.6569 0 21V3Z" fill="#CCDEFF"/>
<path d="M8.07812 8.63807C7.70209 8.37956 7.21141 8.25 6.60608 8.25H4.26255C4.07698 8.25 3.97445 8.34281 3.95498 8.52824L3.00299 14.5041C2.99309 14.5628 3.00778 14.6165 3.04691 14.6653C3.08581 14.7142 3.13475 14.7385 3.19335 14.7385H4.30651C4.50175 14.7385 4.60907 14.6459 4.62877 14.4603L4.89237 12.8492C4.902 12.7711 4.93634 12.7076 4.99494 12.6587C5.0535 12.6099 5.12674 12.578 5.21463 12.5634C5.30251 12.5489 5.38538 12.5416 5.46364 12.5416C5.54167 12.5416 5.63439 12.5465 5.74197 12.5562C5.84929 12.566 5.91769 12.5707 5.94702 12.5707C6.78673 12.5707 7.44583 12.3341 7.92438 11.8604C8.4027 11.3869 8.64213 10.7303 8.64213 9.89032C8.64213 9.31422 8.45396 8.89683 8.07812 8.63793V8.63807ZM6.86982 10.4324C6.82084 10.7743 6.69405 10.9987 6.489 11.1062C6.28391 11.2138 5.99098 11.2673 5.61021 11.2673L5.12683 11.2819L5.37589 9.71465C5.39532 9.60733 5.45876 9.55361 5.56625 9.55361H5.84463C6.23502 9.55361 6.51837 9.60988 6.69414 9.72199C6.86982 9.83436 6.92842 10.0712 6.86982 10.4324Z" fill="#003087"/>
<path d="M32.8093 8.25H31.7256C31.6179 8.25 31.5545 8.30372 31.5351 8.41122L30.583 14.5044L30.5684 14.5337C30.5684 14.5827 30.5879 14.6289 30.6271 14.6729C30.6659 14.7167 30.7149 14.7387 30.7735 14.7387H31.7403C31.9255 14.7387 32.0281 14.6461 32.0479 14.4605L32.9999 8.46982V8.45527C32.9999 8.3185 32.9362 8.25018 32.8093 8.25018V8.25Z" fill="#009CDE"/>
<path d="M19.7142 10.6084C19.7142 10.5597 19.6946 10.5132 19.6558 10.4694C19.6166 10.4254 19.5727 10.4033 19.524 10.4033H18.3962C18.2885 10.4033 18.2007 10.4524 18.1324 10.5498L16.5799 12.8348L15.9354 10.6377C15.8863 10.4816 15.7791 10.4033 15.6132 10.4033H14.5145C14.4656 10.4033 14.4216 10.4253 14.3828 10.4694C14.3436 10.5132 14.3242 10.5597 14.3242 10.6084C14.3242 10.628 14.4194 10.916 14.6098 11.4726C14.8002 12.0293 15.0052 12.6299 15.225 13.2744C15.4447 13.9187 15.5593 14.2607 15.5691 14.2994C14.7684 15.3932 14.3682 15.9791 14.3682 16.0571C14.3682 16.1841 14.4315 16.2475 14.5586 16.2475H15.6864C15.7938 16.2475 15.8816 16.1988 15.9501 16.1011L19.6851 10.7108C19.7045 10.6915 19.7142 10.6575 19.7142 10.6083V10.6084Z" fill="#003087"/>
<path d="M30.2172 10.4034H29.104C28.9671 10.4034 28.8844 10.5646 28.8551 10.8869C28.6009 10.4964 28.1374 10.3009 27.4635 10.3009C26.7605 10.3009 26.1623 10.5646 25.6693 11.0919C25.1761 11.6192 24.9297 12.2394 24.9297 12.9522C24.9297 13.5284 25.0981 13.9873 25.4349 14.329C25.7718 14.671 26.2233 14.8416 26.7899 14.8416C27.073 14.8416 27.3611 14.7829 27.654 14.6659C27.9469 14.5487 28.1762 14.3925 28.3425 14.1972C28.3425 14.207 28.3325 14.2507 28.3132 14.3288C28.2935 14.4071 28.2839 14.4659 28.2839 14.5046C28.2839 14.661 28.3472 14.7389 28.4743 14.7389H29.485C29.6703 14.7389 29.7779 14.6463 29.8071 14.4607L30.4077 10.6378C30.4173 10.5791 30.4027 10.5255 30.3637 10.4766C30.3245 10.4279 30.2757 10.4034 30.2172 10.4034ZM28.3058 13.289C28.0568 13.5332 27.7565 13.6552 27.405 13.6552C27.1217 13.6552 26.8924 13.5772 26.7166 13.4208C26.5407 13.265 26.4528 13.0501 26.4528 12.7764C26.4528 12.4153 26.5749 12.1099 26.8191 11.861C27.0629 11.612 27.3659 11.4875 27.7272 11.4875C28.0004 11.4875 28.2275 11.568 28.4083 11.7291C28.5887 11.8902 28.6794 12.1124 28.6794 12.3957C28.6793 12.7471 28.5548 13.045 28.3058 13.289Z" fill="#009CDE"/>
<path d="M13.5787 10.4034H12.4655C12.3286 10.4034 12.2457 10.5645 12.2164 10.8868C11.9528 10.4964 11.4889 10.3008 10.8249 10.3008C10.1219 10.3008 9.52371 10.5645 9.03066 11.0918C8.53747 11.6191 8.29102 12.2394 8.29102 12.9521C8.29102 13.5284 8.45948 13.9873 8.79638 14.3289C9.13327 14.6709 9.58477 14.8416 10.1512 14.8416C10.4245 14.8416 10.7078 14.7829 11.0007 14.6658C11.2936 14.5486 11.528 14.3925 11.7038 14.1971C11.6646 14.3142 11.6452 14.4167 11.6452 14.5045C11.6452 14.661 11.7086 14.7389 11.8356 14.7389H12.8462C13.0316 14.7389 13.1391 14.6463 13.1685 14.4606L13.7689 10.6377C13.7786 10.579 13.764 10.5255 13.725 10.4766C13.6859 10.4279 13.6372 10.4034 13.5787 10.4034ZM11.6672 13.2962C11.4182 13.5357 11.1129 13.6551 10.7518 13.6551C10.4685 13.6551 10.2415 13.5771 10.0707 13.4208C9.89973 13.2649 9.81435 13.05 9.81435 12.7763C9.81435 12.4153 9.93635 12.1099 10.1806 11.8609C10.4245 11.6119 10.7272 11.4874 11.0887 11.4874C11.3619 11.4874 11.589 11.568 11.7698 11.729C11.9503 11.8902 12.0407 12.1123 12.0407 12.3956C12.0407 12.7569 11.9162 13.0572 11.6672 13.2962Z" fill="#003087"/>
<path d="M24.7169 8.63807C24.3409 8.37956 23.8503 8.25 23.2449 8.25H20.9159C20.7206 8.25 20.6131 8.34281 20.5937 8.52824L19.6417 14.5041C19.6318 14.5628 19.6464 14.6165 19.6856 14.6653C19.7243 14.7142 19.7734 14.7385 19.832 14.7385H21.033C21.1502 14.7385 21.2283 14.6751 21.2674 14.5481L21.5311 12.8492C21.5408 12.7711 21.575 12.7076 21.6336 12.6587C21.6923 12.6099 21.7654 12.578 21.8534 12.5634C21.9412 12.5489 22.024 12.5416 22.1023 12.5416C22.1804 12.5416 22.2731 12.5465 22.3806 12.5562C22.4879 12.566 22.5565 12.5707 22.5856 12.5707C23.4255 12.5707 24.0845 12.3341 24.563 11.8604C25.0415 11.3869 25.2807 10.7303 25.2807 9.89032C25.2808 9.31422 25.0927 8.89679 24.7169 8.63793V8.63807ZM23.2156 11.0475C23.0007 11.194 22.6784 11.2672 22.2489 11.2672L21.7801 11.2819L22.0291 9.71456C22.0485 9.60729 22.112 9.55347 22.2195 9.55347H22.4831C22.6979 9.55347 22.8688 9.56328 22.9959 9.58275C23.1226 9.60236 23.2449 9.6633 23.362 9.76577C23.4793 9.86834 23.5378 10.0173 23.5378 10.2125C23.5378 10.6228 23.4303 10.901 23.2156 11.0475Z" fill="#009CDE"/>
</g>
<defs>
<clipPath id="clip0_48_399">
<rect width="36" height="24" fill="white"/>
</clipPath>
</defs>
</svg>
