<svg width="28" height="28" viewBox="0 0 28 28" fill="none" xmlns="http://www.w3.org/2000/svg">
<path fill-rule="evenodd" clip-rule="evenodd" d="M18.6668 10.4999C18.6668 11.7376 18.1752 12.9246 17.3 13.7998C16.4248 14.6749 15.2378 15.1666 14.0002 15.1666C12.7625 15.1666 11.5755 14.6749 10.7003 13.7998C9.82516 12.9246 9.3335 11.7376 9.3335 10.4999C9.3335 9.26224 9.82516 8.07526 10.7003 7.20009C11.5755 6.32492 12.7625 5.83325 14.0002 5.83325C15.2378 5.83325 16.4248 6.32492 17.3 7.20009C18.1752 8.07526 18.6668 9.26224 18.6668 10.4999ZM16.3335 10.4999C16.3335 11.1188 16.0877 11.7122 15.6501 12.1498C15.2125 12.5874 14.619 12.8333 14.0002 12.8333C13.3813 12.8333 12.7878 12.5874 12.3502 12.1498C11.9127 11.7122 11.6668 11.1188 11.6668 10.4999C11.6668 9.88108 11.9127 9.28759 12.3502 8.85C12.7878 8.41242 13.3813 8.16659 14.0002 8.16659C14.619 8.16659 15.2125 8.41242 15.6501 8.85C16.0877 9.28759 16.3335 9.88108 16.3335 10.4999Z" fill="#161616"/>
<path fill-rule="evenodd" clip-rule="evenodd" d="M14.0001 1.16663C6.91258 1.16663 1.16675 6.91246 1.16675 14C1.16675 21.0875 6.91258 26.8333 14.0001 26.8333C21.0876 26.8333 26.8334 21.0875 26.8334 14C26.8334 6.91246 21.0876 1.16663 14.0001 1.16663ZM3.50008 14C3.50008 16.4383 4.33191 18.683 5.72608 20.4656C6.70543 19.1801 7.96859 18.1383 9.41699 17.4215C10.8654 16.7047 12.4598 16.3322 14.0759 16.3333C15.6712 16.3314 17.2458 16.6939 18.6797 17.3931C20.1136 18.0922 21.3689 19.1096 22.3499 20.3676C23.3608 19.0418 24.0414 17.4944 24.3355 15.8533C24.6295 14.2122 24.5286 12.5247 24.041 10.9304C23.5534 9.33613 22.6932 7.88085 21.5315 6.685C20.3698 5.48916 18.94 4.58713 17.3605 4.05355C15.781 3.51998 14.0971 3.37019 12.4483 3.61659C10.7994 3.863 9.23284 4.4985 7.87831 5.47052C6.52379 6.44254 5.42019 7.72314 4.65885 9.20635C3.8975 10.6896 3.50029 12.3328 3.50008 14ZM14.0001 24.5C11.5896 24.5039 9.25191 23.6746 7.38275 22.1526C8.13503 21.0753 9.13647 20.1958 10.3018 19.5888C11.4672 18.9819 12.762 18.6655 14.0759 18.6666C15.3735 18.6655 16.6525 18.974 17.8069 19.5665C18.9613 20.159 19.9576 21.0184 20.7131 22.0733C18.8295 23.6448 16.4532 24.5038 14.0001 24.5Z" fill="#161616"/>
</svg>
