<svg width="36" height="24" viewBox="0 0 36 24" fill="none" xmlns="http://www.w3.org/2000/svg">
<g clip-path="url(#clip0_48_433)">
<path d="M0 3C0 1.34315 1.34315 0 3 0H33C34.6569 0 36 1.34315 36 3V21C36 22.6569 34.6569 24 33 24H3C1.34315 24 0 22.6569 0 21V3Z" fill="#E6E4FF"/>
<path fill-rule="evenodd" clip-rule="evenodd" d="M26 12.44C26 11.3022 25.4489 10.4044 24.3956 10.4044C23.3378 10.4044 22.6978 11.3022 22.6978 12.4311C22.6978 13.7689 23.4533 14.4444 24.5378 14.4444C25.0667 14.4444 25.4667 14.3244 25.7689 14.1556V13.2667C25.4667 13.4178 25.12 13.5111 24.68 13.5111C24.2489 13.5111 23.8667 13.36 23.8178 12.8356H25.9911C25.9911 12.7778 26 12.5467 26 12.44ZM23.8044 12.0178C23.8044 11.5156 24.1111 11.3067 24.3911 11.3067C24.6622 11.3067 24.9511 11.5156 24.9511 12.0178H23.8044ZM20.9822 10.4044C20.5467 10.4044 20.2667 10.6089 20.1111 10.7511L20.0533 10.4756H19.0756V15.6578L20.1867 15.4222L20.1911 14.1644C20.3511 14.28 20.5867 14.4444 20.9778 14.4444C21.7733 14.4444 22.4978 13.8044 22.4978 12.3956C22.4933 11.1067 21.76 10.4044 20.9822 10.4044ZM20.7156 13.4667C20.4533 13.4667 20.2978 13.3733 20.1911 13.2578L20.1867 11.6089C20.3022 11.48 20.4622 11.3911 20.7156 11.3911C21.12 11.3911 21.4 11.8444 21.4 12.4267C21.4 13.0222 21.1244 13.4667 20.7156 13.4667ZM17.5467 10.1422L18.6622 9.90222V9L17.5467 9.23556V10.1422ZM17.5467 10.48H18.6622V14.3689H17.5467V10.48ZM16.3511 10.8089L16.28 10.48H15.32V14.3689H16.4311V11.7333C16.6933 11.3911 17.1378 11.4533 17.2756 11.5022V10.48C17.1333 10.4267 16.6133 10.3289 16.3511 10.8089ZM14.1289 9.51556L13.0444 9.74667L13.04 13.3067C13.04 13.9644 13.5333 14.4489 14.1911 14.4489C14.5556 14.4489 14.8222 14.3822 14.9689 14.3022V13.4C14.8267 13.4578 14.1244 13.6622 14.1244 13.0044V11.4267H14.9689V10.48H14.1244L14.1289 9.51556ZM11.1244 11.6089C11.1244 11.4356 11.2667 11.3689 11.5022 11.3689C11.84 11.3689 12.2667 11.4711 12.6044 11.6533V10.6089C12.2356 10.4622 11.8711 10.4044 11.5022 10.4044C10.6 10.4044 10 10.8756 10 11.6622C10 12.8889 11.6889 12.6933 11.6889 13.2222C11.6889 13.4267 11.5111 13.4933 11.2622 13.4933C10.8933 13.4933 10.4222 13.3422 10.0489 13.1378V14.1956C10.4622 14.3733 10.88 14.4489 11.2622 14.4489C12.1867 14.4489 12.8222 13.9911 12.8222 13.1956C12.8178 11.8711 11.1244 12.1067 11.1244 11.6089Z" fill="#635BFF"/>
</g>
<defs>
<clipPath id="clip0_48_433">
<rect width="36" height="24" fill="white"/>
</clipPath>
</defs>
</svg>
