<svg width="36" height="25" viewBox="0 0 36 25" fill="none" xmlns="http://www.w3.org/2000/svg">
<g clip-path="url(#clip0_48_391)">
<path d="M0 3.3847C0 1.72785 1.34315 0.384705 3 0.384705H33C34.6569 0.384705 36 1.72785 36 3.3847V21.3847C36 23.0416 34.6569 24.3847 33 24.3847H3C1.34315 24.3847 0 23.0416 0 21.3847V3.3847Z" fill="#CCFAFF"/>
<path fill-rule="evenodd" clip-rule="evenodd" d="M30.4972 8.57168C30.0791 8.57168 29.6176 8.80488 29.4336 9.22401L27.4782 13.7062L26.7739 9.22401C26.6912 8.80488 26.4063 8.57168 25.9558 8.57168L23.4788 8.57168L25.5973 16.0155C25.6363 16.1584 25.6436 16.3165 25.6153 16.483C25.5043 17.1042 24.911 17.6081 24.2894 17.6081L22.9023 17.6081C22.55 17.6081 22.318 17.8264 22.2046 18.3202L21.8965 20.165L24.3395 20.165C25.6139 20.165 27.1106 19.5247 28.1091 17.7541L33.0007 8.57168L30.4972 8.57168Z" fill="#2F3842"/>
<path fill-rule="evenodd" clip-rule="evenodd" d="M6.44971 6.35034C7.18118 6.35034 7.53464 6.64213 7.40611 7.3755L7.19512 8.57029L8.87591 8.57029L8.50569 10.669L6.82419 10.669L6.36607 13.2677C6.20777 14.1731 7.10393 14.2936 7.61804 14.2936C7.72058 14.2936 7.80563 14.2915 7.86659 14.2879L7.45549 16.6284C7.32861 16.6418 7.19772 16.6593 6.92106 16.6593C5.64499 16.6593 3.23107 16.3177 3.70572 13.6247L4.22551 10.669L3 10.669L3.36881 8.57029L4.58227 8.57029L4.97281 6.35034L6.44971 6.35034Z" fill="#2F3842"/>
<path fill-rule="evenodd" clip-rule="evenodd" d="M20.5734 8.66645L20.1418 11.1134C20.6741 11.3854 21.0389 11.9378 21.0389 12.5757C21.0389 13.4168 20.4083 14.1062 19.5965 14.2052L19.165 16.6517C19.2411 16.6567 19.3186 16.6593 19.3959 16.6593C21.6524 16.6593 23.4802 14.8304 23.4802 12.5757C23.4802 10.7324 22.2561 9.17253 20.5734 8.66645Z" fill="#00A6B6"/>
<path fill-rule="evenodd" clip-rule="evenodd" d="M18.6514 14.0386C18.1196 13.7681 17.7539 13.2131 17.7539 12.5759C17.7539 11.74 18.3859 11.0456 19.1974 10.9481L19.6284 8.5013C19.5518 8.49657 19.4739 8.49303 19.3971 8.49303C17.1422 8.49303 15.3135 10.3231 15.3135 12.5759C15.3135 14.4202 16.538 15.981 18.2207 16.4871L18.6514 14.0386Z" fill="#00A6B6"/>
<path fill-rule="evenodd" clip-rule="evenodd" d="M9.84918 8.57167L11.2935 8.57167C12.0252 8.57167 12.3772 8.86416 12.2482 9.59777L12.0902 10.4852C12.6284 9.39293 13.7955 8.49181 14.9927 8.49181C15.1498 8.49181 15.301 8.523 15.301 8.523L14.8341 11.1694C14.8341 11.1694 14.6246 11.1207 14.2976 11.1207C13.6597 11.1207 12.5806 11.323 11.9801 12.5218C11.8369 12.8174 11.7268 13.1767 11.6505 13.6098L11.1279 16.5829L8.4375 16.5829L9.84918 8.57167Z" fill="#2F3842"/>
</g>
<defs>
<clipPath id="clip0_48_391">
<rect width="36" height="24" fill="white" transform="translate(0 0.384644)"/>
</clipPath>
</defs>
</svg>
