<svg width="36" height="24" viewBox="0 0 36 24" fill="none" xmlns="http://www.w3.org/2000/svg">
<g clip-path="url(#clip0_48_384)">
<path d="M0 3C0 1.34315 1.34315 0 3 0H33C34.6569 0 36 1.34315 36 3V21C36 22.6569 34.6569 24 33 24H3C1.34315 24 0 22.6569 0 21V3Z" fill="#FAD1D7"/>
<path d="M9.24831 3.00092H16.4302C17.4328 3.00092 18.0563 3.81807 17.8224 4.82393L14.4787 19.1797C14.2428 20.1821 13.239 21 12.2358 21H5.05454C4.05341 21 3.42847 20.1821 3.66234 19.1797L7.00745 4.82393C7.24132 3.81807 8.24455 3.00092 9.24831 3.00092Z" fill="#E21836"/>
<path d="M15.8318 3H24.0909C25.0932 3 24.6413 3.81715 24.4055 4.82301L21.0623 19.1788C20.8277 20.1812 20.9009 20.999 19.8964 20.999H11.6374C10.6329 20.999 10.0113 20.1812 10.2473 19.1788L13.5903 4.82301C13.8277 3.81715 14.8288 3 15.8318 3Z" fill="#00447C"/>
<path d="M23.7641 3H30.9461C31.95 3 32.5735 3.81715 32.3377 4.82301L28.9946 19.1788C28.7586 20.1812 27.7541 20.999 26.7504 20.999H19.5718C18.5673 20.999 17.9443 20.1812 18.1796 19.1788L21.5233 4.82301C21.7571 3.81715 22.7597 3 23.7641 3Z" fill="#007B84"/>
<path d="M11.1235 7.6006C10.3849 7.60813 10.1668 7.6006 10.0972 7.58415C10.0704 7.71141 9.57199 10.0104 9.57059 10.0123C9.46328 10.4774 9.38521 10.809 9.12 11.0231C8.96946 11.1475 8.7937 11.2076 8.58994 11.2076C8.26241 11.2076 8.0716 11.045 8.03957 10.7365L8.03344 10.6306C8.03344 10.6306 8.13322 10.0076 8.13322 10.0041C8.13322 10.0041 8.65628 7.90905 8.74994 7.63211C8.75484 7.61636 8.75624 7.60813 8.75747 7.6006C7.73935 7.60953 7.55887 7.6006 7.54644 7.58415C7.53962 7.60673 7.51441 7.73662 7.51441 7.73662L6.98032 10.0979L6.93446 10.2982L6.8457 10.9532C6.8457 11.1475 6.88386 11.3061 6.95984 11.4402C7.20316 11.8654 7.89725 11.9292 8.2899 11.9292C8.7958 11.9292 9.27037 11.8217 9.59107 11.6254C10.1477 11.2965 10.2934 10.7824 10.4233 10.3255L10.4835 10.0911C10.4835 10.0911 11.0223 7.91518 11.1139 7.63211C11.1174 7.61636 11.1188 7.60813 11.1235 7.6006ZM12.9568 9.35594C12.8269 9.35594 12.5895 9.38745 12.3763 9.49196C12.2989 9.53169 12.2258 9.57756 12.1486 9.62325L12.2182 9.37169L12.1801 9.32933C11.7279 9.42088 11.6267 9.43314 11.209 9.49196L11.174 9.51524C11.1255 9.91734 11.0825 10.2197 10.9027 11.01C10.8343 11.3013 10.7632 11.5954 10.6919 11.886L10.7112 11.9229C11.1392 11.9003 11.2691 11.9003 11.6411 11.9065L11.6712 11.8737C11.7184 11.6316 11.7246 11.5749 11.8293 11.0846C11.8784 10.8521 11.981 10.3413 12.0316 10.1594C12.1246 10.1164 12.2163 10.074 12.3038 10.074C12.5123 10.074 12.4869 10.2559 12.4789 10.3284C12.47 10.45 12.394 10.8474 12.3161 11.1886L12.2641 11.4088C12.2279 11.5714 12.1881 11.7295 12.1519 11.8907L12.1676 11.9229C12.5895 11.9003 12.7182 11.9003 13.0784 11.9065L13.1208 11.8737C13.1859 11.4956 13.205 11.3944 13.3205 10.8439L13.3787 10.5909C13.4916 10.0959 13.5483 9.84486 13.4629 9.6404C13.3725 9.41126 13.1558 9.35594 12.9568 9.35594ZM15.0048 9.87426C14.7805 9.91732 14.6375 9.94603 14.4954 9.96458C14.3544 9.98716 14.217 10.0076 14.0003 10.0378L13.9832 10.0533L13.9674 10.0658C13.9448 10.2272 13.9291 10.3667 13.8991 10.5307C13.8737 10.7003 13.8347 10.8931 13.7712 11.17C13.722 11.382 13.6966 11.4559 13.6686 11.5304C13.6413 11.605 13.6112 11.6775 13.5558 11.886L13.5688 11.9052L13.5797 11.9229C13.7822 11.9133 13.9147 11.9065 14.0509 11.9052C14.1869 11.9003 14.3278 11.9052 14.546 11.9065L14.565 11.8909L14.5855 11.8737C14.617 11.6857 14.6218 11.6351 14.641 11.5434C14.6601 11.445 14.693 11.3088 14.7737 10.9451C14.8119 10.7742 14.8544 10.6039 14.894 10.4295C14.9351 10.2559 14.9782 10.0848 15.0191 9.91399L15.013 9.89334L15.0048 9.87426ZM15.0095 9.17541C14.8058 9.05514 14.4482 9.09331 14.2075 9.25943C13.9675 9.42223 13.9401 9.6533 14.1432 9.77514C14.3435 9.89208 14.7025 9.85724 14.9411 9.68971C15.1806 9.52341 15.2105 9.29444 15.0095 9.17541ZM16.2418 11.9606C16.6541 11.9606 17.0767 11.847 17.3947 11.5098C17.6395 11.2364 17.7517 10.8296 17.7905 10.662C17.9171 10.1068 17.8185 9.84752 17.6948 9.68963C17.5068 9.44893 17.1745 9.37173 16.8298 9.37173C16.6226 9.37173 16.1289 9.39221 15.7433 9.74774C15.4664 10.0042 15.3384 10.3522 15.2612 10.6859C15.1833 11.0258 15.0937 11.6378 15.6565 11.8655C15.8301 11.9401 16.0804 11.9606 16.2418 11.9606ZM16.2096 10.7112C16.3047 10.2908 16.4169 9.93785 16.7033 9.93785C16.9277 9.93785 16.944 10.2004 16.8442 10.6223C16.8263 10.716 16.7444 11.0641 16.6336 11.2124C16.5562 11.3218 16.4647 11.3882 16.3635 11.3882C16.3334 11.3882 16.1543 11.3882 16.1515 11.1223C16.1501 10.991 16.1769 10.8569 16.2096 10.7112ZM18.8211 11.9065L18.8533 11.8738C18.899 11.6317 18.9065 11.5748 19.0077 11.0846C19.0583 10.8522 19.163 10.3414 19.2122 10.1595C19.3053 10.1162 19.3954 10.0739 19.4858 10.0739C19.6929 10.0739 19.6676 10.2558 19.6594 10.3282C19.6519 10.4501 19.5759 10.8473 19.4966 11.1885L19.4474 11.4087C19.4098 11.5715 19.3688 11.7294 19.3326 11.8908L19.3483 11.923C19.7716 11.9004 19.8954 11.9004 20.2577 11.9065L20.3015 11.8738C20.3651 11.4955 20.3822 11.3943 20.5013 10.8439L20.558 10.5908C20.6714 10.0958 20.7288 9.84492 20.6448 9.64045C20.5518 9.41131 20.3337 9.35599 20.1375 9.35599C20.0074 9.35599 19.7688 9.38733 19.5568 9.49201C19.481 9.53174 19.4051 9.57743 19.3305 9.6233L19.3954 9.37175L19.3606 9.32921C18.9086 9.42094 18.8053 9.43319 18.3882 9.49201L18.3561 9.51529C18.3056 9.91739 18.2644 10.2195 18.0846 11.0101C18.0162 11.3014 17.9451 11.5955 17.874 11.886L17.8931 11.923C18.3218 11.9004 18.4498 11.9004 18.8211 11.9065ZM21.931 11.9229C21.9576 11.793 22.1157 11.0231 22.1171 11.0231C22.1171 11.0231 22.2517 10.4582 22.2599 10.4377C22.2599 10.4377 22.3023 10.3789 22.3447 10.3556H22.407C22.995 10.3556 23.659 10.3556 24.1794 9.97279C24.5335 9.71021 24.7756 9.32247 24.8836 8.85122C24.9116 8.73569 24.9323 8.59827 24.9323 8.46085C24.9323 8.28037 24.8961 8.10182 24.7914 7.9623C24.526 7.59101 23.9975 7.58418 23.3874 7.58138C23.3855 7.58138 23.0867 7.58418 23.0867 7.58418C22.3058 7.59381 21.9926 7.59101 21.864 7.57526C21.8531 7.63215 21.8326 7.73333 21.8326 7.73333C21.8326 7.73333 21.5529 9.02978 21.5529 9.03188C21.5529 9.03188 20.8835 11.7883 20.852 11.9182C21.5338 11.9099 21.8134 11.9099 21.931 11.9229ZM22.4493 9.61988C22.4493 9.61988 22.7468 8.32606 22.7454 8.33096L22.755 8.26462L22.7592 8.21403L22.878 8.22628C22.878 8.22628 23.4914 8.27897 23.5058 8.28037C23.7479 8.37403 23.8477 8.61543 23.778 8.93052C23.7144 9.21849 23.5277 9.46059 23.2877 9.57752C23.09 9.6766 22.8479 9.68483 22.5985 9.68483H22.4371L22.4493 9.61988ZM24.3011 10.7352C24.2225 11.0703 24.1322 11.6822 24.6922 11.9004C24.8708 11.9763 25.0308 11.9989 25.1934 11.9907C25.3651 11.9814 25.5242 11.8953 25.6716 11.7713C25.6583 11.8223 25.645 11.8732 25.6317 11.9243L25.6571 11.9571C26.0599 11.9401 26.1849 11.9401 26.6213 11.9434L26.6609 11.9133C26.7246 11.5387 26.7846 11.1749 26.9502 10.4583C27.0309 10.115 27.1114 9.77503 27.1942 9.43315L27.1813 9.39552C26.7307 9.47902 26.6103 9.49687 26.1768 9.55832L26.1439 9.5851C26.1395 9.61994 26.135 9.65337 26.1308 9.68681C26.0634 9.57792 25.9657 9.48497 25.815 9.42703C25.6223 9.35123 25.1696 9.44891 24.7804 9.80322C24.507 10.0562 24.3757 10.4028 24.3011 10.7352ZM25.2475 10.7557C25.3439 10.3427 25.4547 9.99333 25.7418 9.99333C25.9233 9.99333 26.0189 10.1609 25.9995 10.4465C25.9841 10.5178 25.9675 10.5929 25.9477 10.6778C25.919 10.8005 25.8878 10.9222 25.8575 11.044C25.8267 11.1273 25.7908 11.2059 25.7514 11.2583C25.6776 11.3629 25.5018 11.4279 25.4006 11.4279C25.3719 11.4279 25.1948 11.4279 25.1886 11.1667C25.1872 11.0366 25.214 10.9027 25.2475 10.7557ZM30.1893 9.39217L30.1545 9.35244C29.7086 9.44277 29.6279 9.45712 29.2183 9.51244L29.1882 9.54255C29.1868 9.54745 29.1856 9.55497 29.1835 9.5618L29.1821 9.55497C28.8771 10.2585 28.886 10.1067 28.6378 10.6606C28.6364 10.6354 28.6364 10.6197 28.635 10.5929L28.5729 9.39217L28.5338 9.35244C28.0668 9.44277 28.0558 9.45712 27.6244 9.51244L27.5908 9.54255C27.5861 9.5569 27.5861 9.57266 27.5833 9.58981L27.5861 9.59594C27.64 9.87147 27.6271 9.81003 27.6812 10.2449C27.7064 10.4583 27.74 10.6729 27.7652 10.8836C27.8077 11.2364 27.8315 11.41 27.8835 11.9483C27.5922 12.429 27.5233 12.6109 27.2428 13.0328L27.2447 13.037L27.0473 13.3493C27.0247 13.3822 27.0042 13.4048 26.9755 13.4144C26.944 13.43 26.903 13.4328 26.8461 13.4328H26.7367L26.5741 13.9737L27.132 13.9833C27.4595 13.9819 27.6654 13.8287 27.7762 13.6229L28.127 13.0217H28.1214L28.1583 12.9794C28.3943 12.4714 30.1893 9.39217 30.1893 9.39217ZM24.3011 16.4963H24.0644L24.9404 13.599H25.231L25.3232 13.3005L25.3322 13.6324C25.3213 13.8376 25.4827 14.0195 25.9067 13.9894H26.397L26.5658 13.4315H26.3813C26.2752 13.4315 26.226 13.4047 26.2321 13.3473L26.2232 13.0096H25.3152V13.0113C25.0216 13.0175 24.145 13.0395 23.9675 13.0868C23.7527 13.1421 23.5263 13.3049 23.5263 13.3049L23.6152 13.0061H22.7659L22.5889 13.599L21.7012 16.5406H21.529L21.36 17.0945H23.0518L22.995 17.2791H23.8286L23.884 17.0945H24.1178L24.3011 16.4963ZM23.607 14.1877C23.471 14.2253 23.2179 14.3395 23.2179 14.3395L23.443 13.599H24.1178L23.955 14.1385C23.955 14.1385 23.7465 14.1508 23.607 14.1877ZM23.62 15.2455C23.62 15.2455 23.408 15.2721 23.2685 15.3037C23.131 15.3453 22.8734 15.4766 22.8734 15.4766L23.1058 14.706H23.7842L23.62 15.2455ZM23.2419 16.5031H22.5649L22.7612 15.8528H23.436L23.2419 16.5031ZM24.8721 14.706H25.8478L25.7076 15.1601H24.7189L24.5704 15.6566H25.4356L24.7805 16.5789C24.7346 16.6467 24.6935 16.6706 24.6478 16.6897C24.602 16.713 24.5417 16.7403 24.4721 16.7403H24.2321L24.0672 17.284H24.6949C25.0212 17.284 25.2139 17.1356 25.3563 16.9408L25.8055 16.326L25.9019 16.9502C25.9224 17.0671 26.0064 17.1356 26.0633 17.1622C26.1262 17.1937 26.1911 17.2478 26.2828 17.2559C26.3812 17.2601 26.4523 17.2634 26.4995 17.2634H26.808L26.9932 16.6549H26.8715C26.8017 16.6549 26.6814 16.6432 26.6609 16.6213C26.6405 16.5947 26.6405 16.5537 26.6294 16.4914L26.5316 15.8658H26.1309L26.3066 15.6566H27.2934L27.4452 15.1601H26.5316L26.6739 14.706H27.5847L27.7536 14.146H25.0382L24.8721 14.706ZM16.6308 16.6296L16.8586 15.8719H17.7946L17.9656 15.3084H17.0287L17.1718 14.8421H18.0873L18.2569 14.2964H15.9662L15.8 14.8421H16.3205L16.1817 15.3084H15.6598L15.4869 15.8816H16.0071L15.7036 16.8839C15.6626 17.0166 15.7228 17.0672 15.761 17.1288C15.8 17.1889 15.8396 17.2286 15.9285 17.2512C16.0203 17.2717 16.0831 17.2839 16.1685 17.2839H17.2238L17.4118 16.6597L16.944 16.7239C16.8537 16.7239 16.6035 16.7131 16.6308 16.6296ZM16.7382 13.0027L16.501 13.4314C16.4502 13.525 16.4046 13.5831 16.3634 13.6099C16.3272 13.6325 16.2554 13.642 16.1514 13.642H16.0277L15.8622 14.1904H16.2733C16.4709 14.1904 16.6227 14.1179 16.6951 14.0817C16.773 14.04 16.7935 14.0638 16.8537 14.0057L16.9926 13.8855H18.2761L18.4464 13.3144H17.5069L17.6709 13.0027H16.7382ZM18.6331 16.6406C18.6112 16.6091 18.6269 16.5536 18.6604 16.438L19.0112 15.2769H20.2591C20.441 15.2743 20.5723 15.2722 20.6577 15.2661C20.7495 15.2564 20.8492 15.2237 20.9579 15.1649C21.0702 15.1033 21.1276 15.0383 21.1761 14.9637C21.2302 14.8893 21.317 14.7265 21.3916 14.4755L21.8325 13.0061L20.5375 13.0136C20.5375 13.0136 20.1387 13.0725 19.9631 13.1374C19.786 13.2099 19.5328 13.4122 19.5328 13.4122L19.6498 13.0094H18.8498L17.7298 16.7239C17.69 16.8681 17.6634 16.9728 17.6573 17.0357C17.6552 17.1034 17.7427 17.1705 17.7995 17.2211C17.8665 17.2716 17.9656 17.2634 18.0606 17.2716C18.1606 17.2792 18.3027 17.2839 18.499 17.2839H19.1138L19.3025 16.6467L18.7521 16.6987C18.6933 16.6987 18.6507 16.6672 18.6331 16.6406ZM19.2375 14.4927H20.5483L20.465 14.7538C20.4533 14.76 20.4253 14.7409 20.2919 14.7566H19.1568L19.2375 14.4927ZM19.5001 13.6167H20.8219L20.7269 13.9313C20.7269 13.9313 20.1039 13.9251 20.0041 13.9435C19.565 14.0195 19.3086 14.2541 19.3086 14.2541L19.5001 13.6167ZM20.4943 15.6285C20.4835 15.6675 20.4663 15.6913 20.4423 15.7092C20.4157 15.7263 20.3727 15.7324 20.3084 15.7324H20.1216L20.1327 15.4144H19.3558L19.3243 16.9694C19.323 17.0816 19.3339 17.1465 19.416 17.1985C19.4981 17.2635 19.7511 17.2717 20.0915 17.2717H20.5784L20.7541 16.6896L20.3303 16.7129L20.1894 16.7212C20.1701 16.7129 20.1518 16.7054 20.1313 16.6849C20.1134 16.6672 20.0833 16.6781 20.0882 16.5659L20.0915 16.1673L20.536 16.1489C20.776 16.1489 20.8786 16.0708 20.9661 15.9964C21.0496 15.9252 21.0769 15.8433 21.1084 15.7324L21.183 15.3795H20.5722L20.4943 15.6285Z" fill="#FEFEFE"/>
</g>
<defs>
<clipPath id="clip0_48_384">
<rect width="36" height="24" fill="white"/>
</clipPath>
</defs>
</svg>
