<svg width="36" height="24" viewBox="0 0 36 24" fill="none" xmlns="http://www.w3.org/2000/svg">
<g clip-path="url(#clip0_48_376)">
<path d="M0 3C0 1.34315 1.34315 0 3 0H33C34.6569 0 36 1.34315 36 3V21C36 22.6569 34.6569 24 33 24H3C1.34315 24 0 22.6569 0 21V3Z" fill="#D8E3F3"/>
<path d="M30.9829 7.52631H29.0969C28.5268 7.52631 28.0882 7.70174 27.825 8.27192L24.2285 16.4737H26.7724C26.7724 16.4737 27.211 15.3772 27.2987 15.114C27.5618 15.114 30.0618 15.114 30.4127 15.114C30.5004 15.421 30.7197 16.4298 30.7197 16.4298H33.0004L30.9829 7.52631ZM28.0004 13.2719C28.2197 12.7456 28.9654 10.7719 28.9654 10.7719C28.9654 10.8158 29.1847 10.2456 29.2724 9.93859L29.4478 10.7281C29.4478 10.7281 29.9303 12.8772 30.018 13.3158H28.0004V13.2719Z" fill="#3362AB"/>
<path d="M24.4034 13.5351C24.4034 15.3772 22.7367 16.6052 20.149 16.6052C19.0525 16.6052 17.9999 16.3859 17.4297 16.1228L17.7806 14.1052L18.0876 14.2368C18.8771 14.5877 19.4034 14.7193 20.3683 14.7193C21.07 14.7193 21.8157 14.4561 21.8157 13.8421C21.8157 13.4473 21.5086 13.1842 20.5437 12.7456C19.6227 12.307 18.3946 11.6052 18.3946 10.3333C18.3946 8.57892 20.1051 7.39471 22.5174 7.39471C23.4385 7.39471 24.2279 7.57015 24.7104 7.78945L24.3595 9.71928L24.1841 9.54384C23.7455 9.3684 23.1753 9.19296 22.342 9.19296C21.4209 9.23682 20.9823 9.63156 20.9823 9.98243C20.9823 10.3772 21.5086 10.6842 22.342 11.0789C23.7455 11.7368 24.4034 12.4824 24.4034 13.5351Z" fill="#3362AB"/>
<path d="M3 7.61404L3.04386 7.4386H6.81579C7.3421 7.4386 7.73684 7.61404 7.86842 8.18421L8.70175 12.1316C7.86842 10.0263 5.9386 8.31579 3 7.61404Z" fill="#F9B50B"/>
<path d="M14.0096 7.52628L10.1938 16.4298H7.60607L5.41309 8.97365C6.99203 9.98242 8.30782 11.5614 8.79028 12.6579L9.05344 13.5789L11.4219 7.48242H14.0096V7.52628Z" fill="#3362AB"/>
<path d="M15.0175 7.48242H17.4298L15.8947 16.4298H13.4824L15.0175 7.48242Z" fill="#3362AB"/>
</g>
<defs>
<clipPath id="clip0_48_376">
<rect width="36" height="24" fill="white"/>
</clipPath>
</defs>
</svg>
