<svg width="36" height="25" viewBox="0 0 36 25" fill="none" xmlns="http://www.w3.org/2000/svg">
<g clip-path="url(#clip0_48_373)">
<path d="M0 3.38464C0 1.72779 1.34315 0.384644 3 0.384644H33C34.6569 0.384644 36 1.72779 36 3.38464V21.3846C36 23.0415 34.6569 24.3846 33 24.3846H3C1.34315 24.3846 0 23.0415 0 21.3846V3.38464Z" fill="#D8E6F3"/>
<path d="M7.90711 10.9094C7.91612 10.9005 7.92423 10.8915 7.93288 10.8823L7.97558 10.8305C8.07037 10.7083 8.12929 10.5566 8.12929 10.3899C8.12929 10.1982 8.05316 10.0144 7.91765 9.87892C7.78214 9.74341 7.59835 9.66728 7.4067 9.66728C7.21858 9.6673 7.03797 9.74105 6.9036 9.87271L3.13857 13.9619C3.04878 14.0845 3.00025 14.2324 3 14.3843C3 14.5759 3.07613 14.7597 3.21164 14.8952C3.34715 15.0307 3.53095 15.1069 3.72259 15.1069H7.31661C7.50825 15.1069 7.69204 15.0307 7.82755 14.8952C7.96306 14.7597 8.03919 14.5759 8.03919 14.3843C8.03919 14.1926 7.96306 14.0088 7.82755 13.8733C7.69204 13.7378 7.50825 13.6617 7.31661 13.6617H5.45247C5.45247 13.6617 5.31408 13.6336 5.4386 13.5093L7.90711 10.9094ZM6.41706 9.6626H3.77484V9.6644C3.58632 9.66962 3.40727 9.7482 3.27579 9.88342C3.14432 10.0186 3.0708 10.1998 3.07087 10.3884C3.07094 10.577 3.1446 10.7581 3.27617 10.8933C3.40775 11.0284 3.58685 11.1068 3.77539 11.1119C3.78061 11.1119 3.78548 11.1103 3.79088 11.1101H5.11911L6.41706 9.6626ZM10.5245 9.78639C10.5245 9.78639 9.08343 9.79865 8.7634 10.5623C8.7634 10.5623 8.66466 11.0425 8.7016 11.3628C8.7016 11.3628 9.404 10.8405 10.3273 10.8209C11.4851 10.7962 11.3743 11.7817 11.3743 11.7817C11.3743 11.7817 8.12298 11.4121 8.12298 13.7152C8.12298 13.7152 8.1228 15.2179 9.8963 15.2179C9.8963 15.2179 10.8816 15.1314 11.3496 14.3308V15.0822C11.3496 15.0822 12.8153 15.2301 12.8153 13.974V11.3011C12.8153 11.3011 12.7414 9.78639 10.5245 9.78639ZM10.3187 14.1493C9.56185 14.1758 9.54546 13.384 9.54546 13.384C9.54546 13.384 9.44202 12.8086 10.4591 12.7088C10.4591 12.7088 11.3831 12.5904 11.3907 12.7888C11.3907 12.7888 11.5157 14.1073 10.3187 14.1493ZM16.5 9.83721C16.5 9.83721 15.1305 9.86388 14.8367 10.7449V9.84135C14.8367 9.84135 13.264 9.6835 13.264 10.9501C13.264 12.2167 13.2788 17.5165 13.2788 17.5165C13.2788 17.5165 14.8353 17.6651 14.8353 16.3673V14.4551C14.8353 14.4551 15.3498 15.2782 16.3401 15.2782C17.4754 15.2782 18.6555 14.5032 18.6555 12.3533C18.6556 9.80585 16.5 9.83721 16.5 9.83721ZM15.7673 14.0169C15.318 14.0169 14.7699 13.4352 14.7699 12.4174C14.7699 11.3997 15.3051 10.9501 15.9127 10.9501C15.9127 10.9501 17.0957 11.0031 17.0957 12.3843C17.0957 13.7655 16.2794 14.0169 15.7673 14.0169ZM22.1401 9.83721C22.1401 9.83721 20.7706 9.86388 20.4765 10.7449V9.84135C20.4765 9.84135 18.9041 9.6835 18.9041 10.9501C18.9041 12.2167 18.9186 17.5165 18.9186 17.5165C18.9186 17.5165 20.4755 17.6651 20.4755 16.3673V14.4551C20.4755 14.4551 20.9897 15.2782 21.9801 15.2782C23.1155 15.2782 24.2956 14.5032 24.2956 12.3533C24.2956 9.80585 22.1401 9.83721 22.1401 9.83721ZM21.4076 14.0169C20.958 14.0169 20.4099 13.4352 20.4099 12.4174C20.4099 11.3997 20.9449 10.9501 21.5528 10.9501C21.5528 10.9501 22.7358 11.0031 22.7358 12.3843C22.7358 13.7655 21.9194 14.0169 21.4076 14.0169ZM28.2992 10.1906C27.9344 10.0013 27.5295 9.9023 27.1186 9.9019C25.6696 9.9019 24.4953 11.0989 24.4953 12.5757C24.4953 14.0524 25.6696 15.2492 27.1186 15.2492C27.195 15.2492 27.2707 15.2453 27.3456 15.2388C27.5377 15.2137 27.9286 15.142 28.3154 14.9523C28.5417 14.8328 28.7493 14.6811 28.9317 14.5018C29.1243 14.2912 29.2569 14.0327 29.3155 13.7534H29.0932C29.0932 13.7534 28.6818 14.1745 27.4188 14.1745C26.1556 14.1745 25.9792 12.9114 25.9792 12.9114H29.415C29.4489 12.5185 29.5127 10.8717 28.2992 10.1906ZM28.0095 12.0598H25.9729C25.9729 12.0598 26.0251 10.8845 27.0434 10.8845C28.0615 10.8845 28.0095 12.0598 28.0095 12.0598ZM31.3629 12.6784C31.3629 11.6606 31.833 11.2224 32.441 11.2224C32.441 11.2224 32.7155 11.2366 33 11.4033V9.83847C32.8106 9.84748 31.6348 9.93542 31.3651 10.7449V9.84117C31.3651 9.84117 29.792 9.6835 29.792 10.9503C29.792 12.2167 29.7977 15.1296 29.7977 15.1296C29.7977 15.1296 31.3638 15.2375 31.3638 13.9399C31.3638 12.8077 31.3629 12.6944 31.3629 12.6784Z" fill="#3D80C0"/>
</g>
<defs>
<clipPath id="clip0_48_373">
<rect width="36" height="24" fill="white" transform="translate(0 0.384644)"/>
</clipPath>
</defs>
</svg>
